<svg xmlns="http://www.w3.org/2000/svg" xmlns:xlink="http://www.w3.org/1999/xlink" width="180" zoomAndPan="magnify" viewBox="0 0 135 135.000003" height="180" preserveAspectRatio="xMidYMid meet" version="1.0"><defs><g/><clipPath id="bef4114a5e"><path d="M 4.054688 3.558594 L 130.945312 3.558594 L 130.945312 130.449219 L 4.054688 130.449219 Z M 4.054688 3.558594 " clip-rule="nonzero"/></clipPath><clipPath id="f47edc7b85"><path d="M 67.5 3.558594 C 32.460938 3.558594 4.054688 31.964844 4.054688 67.003906 C 4.054688 102.042969 32.460938 130.449219 67.5 130.449219 C 102.539062 130.449219 130.945312 102.042969 130.945312 67.003906 C 130.945312 31.964844 102.539062 3.558594 67.5 3.558594 Z M 67.5 3.558594 " clip-rule="nonzero"/></clipPath><clipPath id="7018fec849"><path d="M 0.0546875 0.558594 L 126.945312 0.558594 L 126.945312 127.449219 L 0.0546875 127.449219 Z M 0.0546875 0.558594 " clip-rule="nonzero"/></clipPath><clipPath id="28cbd0cdc3"><path d="M 63.5 0.558594 C 28.460938 0.558594 0.0546875 28.964844 0.0546875 64.003906 C 0.0546875 99.042969 28.460938 127.449219 63.5 127.449219 C 98.539062 127.449219 126.945312 99.042969 126.945312 64.003906 C 126.945312 28.964844 98.539062 0.558594 63.5 0.558594 Z M 63.5 0.558594 " clip-rule="nonzero"/></clipPath><clipPath id="116ae1a0e4"><rect x="0" width="127" y="0" height="128"/></clipPath><clipPath id="9b2aac1b89"><rect x="0" width="123" y="0" height="54"/></clipPath><clipPath id="37863daced"><path d="M 9.273438 35.488281 L 37.023438 35.488281 L 37.023438 42.300781 L 9.273438 42.300781 Z M 9.273438 35.488281 " clip-rule="nonzero"/></clipPath><clipPath id="5bfb7be7eb"><path d="M 51.996094 35.488281 L 94.972656 35.488281 L 94.972656 42.300781 L 51.996094 42.300781 Z M 51.996094 35.488281 " clip-rule="nonzero"/></clipPath><clipPath id="384b6a9177"><path d="M 33.394531 0.917969 L 88.691406 0.917969 L 88.691406 39.488281 L 33.394531 39.488281 Z M 33.394531 0.917969 " clip-rule="nonzero"/></clipPath><clipPath id="229345a643"><path d="M 0.417969 0.917969 L 55.691406 0.917969 L 55.691406 39.488281 L 0.417969 39.488281 Z M 0.417969 0.917969 " clip-rule="nonzero"/></clipPath><clipPath id="e978f01360"><rect x="0" width="56" y="0" height="40"/></clipPath><clipPath id="76591d561e"><path d="M 14 13 L 90 13 L 90 61.496094 L 14 61.496094 Z M 14 13 " clip-rule="nonzero"/></clipPath><clipPath id="4bf5098b05"><path d="M 0.03125 42 L 31.945312 42 L 31.945312 61.5625 L 0.03125 61.5625 Z M 0.03125 42 " clip-rule="nonzero"/></clipPath><clipPath id="7fe2fd455a"><path d="M 82.324219 42.347656 L 95.148438 42.347656 L 95.148438 57.375 L 82.324219 57.375 Z M 82.324219 42.347656 " clip-rule="nonzero"/></clipPath><clipPath id="403b450a15"><rect x="0" width="96" y="0" height="62"/></clipPath><clipPath id="349942164b"><path d="M 51 24 L 63 24 L 63 34.34375 L 51 34.34375 Z M 51 24 " clip-rule="nonzero"/></clipPath><clipPath id="3202474bf1"><path d="M 82 29 L 89.628906 29 L 89.628906 34.023438 L 82 34.023438 Z M 82 29 " clip-rule="nonzero"/></clipPath><clipPath id="8a45bf54fe"><path d="M 71 4 L 82.417969 4 L 82.417969 17 L 71 17 Z M 71 4 " clip-rule="nonzero"/></clipPath><clipPath id="0ce7a98c44"><rect x="0" width="83" y="0" height="21"/></clipPath><clipPath id="ad076aceb9"><path d="M 0.273438 2 L 6 2 L 6 8 L 0.273438 8 Z M 0.273438 2 " clip-rule="nonzero"/></clipPath><clipPath id="1d11bea4e6"><rect x="0" width="86" y="0" height="10"/></clipPath></defs><g clip-path="url(#bef4114a5e)"><g clip-path="url(#f47edc7b85)"><g transform="matrix(1, 0, 0, 1, 4, 3)"><g clip-path="url(#116ae1a0e4)"><g clip-path="url(#7018fec849)"><g clip-path="url(#28cbd0cdc3)"><path fill="#fff5e4" d="M 0.0546875 0.558594 L 126.945312 0.558594 L 126.945312 127.449219 L 0.0546875 127.449219 Z M 0.0546875 0.558594 " fill-opacity="1" fill-rule="nonzero"/></g></g></g></g></g></g><g transform="matrix(1, 0, 0, 1, 6, 6)"><g clip-path="url(#9b2aac1b89)"><g fill="#4f622a" fill-opacity="1"><g transform="translate(15.648145, 51.837357)"><g><path d="M -0.03125 -1.359375 L -0.328125 -1.4375 L -3.71875 -2.78125 L -4.21875 -2.90625 L -7.125 -4.125 L -7.796875 -4.328125 L -8.703125 -4.71875 L -8.96875 -4.8125 L -9.296875 -4.953125 L -9.59375 -5.03125 L -9.9375 -5.15625 L -10.1875 -5.421875 L -10.21875 -5.828125 L -9.453125 -7.6875 L -9.421875 -8 L -9.09375 -8.578125 L -9.0625 -8.875 L -8.390625 -10.4375 L -8.015625 -10.984375 L -7.8125 -11.21875 L -7.578125 -11.46875 L -7.3125 -11.65625 L -7.0625 -11.8125 L -6.8125 -11.984375 L -6.515625 -12.125 L -5.59375 -12.375 L -5.234375 -12.34375 L -4.640625 -12.25 L -4.125 -12.109375 L -3.625 -11.890625 L -3.125 -11.484375 L -2.640625 -10.953125 L -2.40625 -10.71875 L -1.96875 -10.75 L -1.671875 -10.921875 L -1.34375 -11.03125 L -0.609375 -11.046875 L 0 -11.015625 L 1.25 -10.5 L 1.5 -10.25 L 1.765625 -10.046875 L 2.015625 -9.765625 L 2.421875 -9.125 L 2.671875 -8.328125 L 2.71875 -7.984375 L 2.609375 -7.03125 L 2.5625 -6.734375 L 2.015625 -5.109375 L 1.84375 -4.8125 L 1.015625 -2.5625 L 0.78125 -2.109375 L 0.625 -1.59375 L 0.328125 -1.359375 Z M -4.921875 -6.890625 L -4.515625 -8.09375 L -4.484375 -8.609375 L -4.59375 -8.90625 L -5 -9.203125 L -5.484375 -9.328125 L -5.78125 -9.296875 L -6 -9.109375 L -6.71875 -7.546875 L -6.65625 -7.171875 L -6.265625 -6.8125 L -5.734375 -6.625 L -5.25 -6.625 Z M -0.828125 -5.234375 L -0.328125 -6.4375 L -0.0625 -7.3125 L -0.15625 -7.625 L -0.28125 -7.890625 L -0.703125 -8.125 L -1.140625 -8.203125 L -1.46875 -8.140625 L -1.6875 -7.9375 L -2.375 -6.53125 L -2.46875 -6.1875 L -2.640625 -5.90625 L -2.53125 -5.5625 L -2.328125 -5.328125 L -1.4375 -4.921875 L -1.03125 -5 Z M -0.828125 -5.234375 "/></g></g></g><g fill="#4f622a" fill-opacity="1"><g transform="translate(19.292326, 42.163268)"><g><path d="M 3.375 -4.609375 L 3.046875 -4.171875 L 2.859375 -3.90625 L 2.375 -3.453125 L 1.796875 -3.078125 L 1.546875 -2.953125 L 1.234375 -2.765625 L 0.65625 -2.515625 L 0.328125 -2.4375 L 0.03125 -2.421875 L -0.6875 -2.421875 L -1.296875 -2.515625 L -1.96875 -2.75 L -3.125 -3.421875 L -5.3125 -4.96875 L -5.578125 -5.109375 L -5.84375 -5.328125 L -7.78125 -6.59375 L -7.984375 -6.765625 L -8.3125 -6.984375 L -8.609375 -7.15625 L -8.75 -7.5 L -8.65625 -7.859375 L -8.5 -8.1875 L -8.0625 -8.734375 L -7.90625 -9.03125 L -7.734375 -9.296875 L -7.421875 -9.5 L -7 -9.46875 L -6.59375 -9.234375 L -6.171875 -8.90625 L -5.9375 -8.796875 L -1.546875 -5.765625 L -0.671875 -5.296875 L -0.375 -5.203125 L -0.046875 -5.234375 L 0.28125 -5.328125 L 0.5625 -5.484375 L 0.859375 -5.75 L 1.40625 -6.5625 L 1.5625 -7.15625 L 1.546875 -7.53125 L 1.390625 -7.84375 L 1.21875 -8.078125 L 0.4375 -8.75 L -5 -12.375 L -5.203125 -12.734375 L -5.140625 -13.125 L -4.71875 -13.65625 L -4.15625 -14.546875 L -3.859375 -14.78125 L -3.4375 -14.78125 L -3.203125 -14.546875 L -2.0625 -13.78125 L -1.828125 -13.640625 L -1.546875 -13.421875 L -1.265625 -13.265625 L 2.453125 -10.765625 L 3.078125 -10.25 L 3.578125 -9.75 L 3.703125 -9.453125 L 3.9375 -9.1875 L 4.1875 -8.53125 L 4.3125 -7.890625 L 4.3125 -7.234375 L 4.25 -6.578125 L 3.796875 -5.296875 L 3.609375 -5.046875 Z M 3.375 -4.609375 "/></g></g></g><g fill="#4f622a" fill-opacity="1"><g transform="translate(25.448603, 33.156059)"><g><path d="M 0.53125 -1.1875 L -2.953125 -4.734375 L -3.1875 -5.046875 L -3.453125 -5.234375 L -3.640625 -5.484375 L -3.828125 -5.71875 L -4.109375 -5.96875 L -4.3125 -6.21875 L -4.546875 -6.453125 L -4.796875 -6.609375 L -6.03125 -8.015625 L -6.40625 -8.328125 L -6.859375 -8.859375 L -7 -9.140625 L -6.859375 -9.515625 L -6.515625 -9.828125 L -6.28125 -10.078125 L -5.671875 -10.671875 L -5.4375 -10.875 L -4.984375 -11.3125 L -4.625 -11.6875 L -4.390625 -11.921875 L -4.046875 -12.28125 L -3.8125 -12.46875 L -3.359375 -12.953125 L -3.078125 -13.171875 L -2.375 -13.875 L -2.046875 -13.953125 L -1.5625 -13.734375 L -1.140625 -13.234375 L -0.515625 -12.671875 L -0.421875 -12.3125 L -0.53125 -11.96875 L -1.46875 -11.109375 L -1.671875 -10.84375 L -1.921875 -10.625 L -2.140625 -10.390625 L -2.5 -10.09375 L -2.890625 -9.734375 L -2.96875 -9.34375 L -2.84375 -8.984375 L -2.296875 -8.484375 L -2.109375 -8.234375 L -1.78125 -7.90625 L -1.40625 -7.765625 L -1.078125 -7.90625 L -0.828125 -8.171875 L -0.3125 -8.578125 L 0.28125 -9.21875 L 0.890625 -9.78125 L 1.234375 -9.921875 L 1.578125 -9.8125 L 2.609375 -8.75 L 2.84375 -8.28125 L 2.71875 -7.90625 L 2.25 -7.40625 L 2 -7.203125 L 1.765625 -6.953125 L 1.5 -6.734375 L 1.296875 -6.46875 L 1.015625 -6.25 L 0.78125 -5.984375 L 0.640625 -5.640625 L 0.765625 -5.3125 L 2 -4.0625 L 2.203125 -3.796875 L 2.609375 -3.453125 L 2.796875 -2.96875 L 2.65625 -2.625 L 2.109375 -2 L 1.25 -1.21875 L 0.859375 -1.078125 Z M 0.53125 -1.1875 "/></g></g></g><g fill="#4f622a" fill-opacity="1"><g transform="translate(31.608163, 27.10694)"><g><path d="M 0.75 -1.078125 L -2.046875 -5.1875 L -2.21875 -5.546875 L -2.4375 -5.78125 L -2.71875 -6.3125 L -2.96875 -6.625 L -3.09375 -6.890625 L -3.296875 -7.171875 L -3.5 -7.375 L -4.46875 -8.96875 L -4.78125 -9.34375 L -5.140625 -9.953125 L -5.21875 -10.25 L -5.015625 -10.59375 L -4.625 -10.84375 L -4.34375 -11.0625 L -3.640625 -11.546875 L -3.375 -11.671875 L -2.84375 -12.03125 L -2.421875 -12.34375 L -2.140625 -12.515625 L -1.734375 -12.828125 L -1.46875 -12.953125 L -0.953125 -13.359375 L -0.625 -13.5 L 0.203125 -14.078125 L 0.53125 -14.09375 L 0.984375 -13.78125 L 1.28125 -13.234375 L 1.796875 -12.546875 L 1.828125 -12.1875 L 1.65625 -11.859375 L 0.578125 -11.1875 L 0.3125 -10.96875 L 0.046875 -10.796875 L -0.21875 -10.609375 L -0.640625 -10.390625 L -1.078125 -10.09375 L -1.21875 -9.71875 L -1.171875 -9.359375 L -0.71875 -8.765625 L -0.578125 -8.484375 L -0.328125 -8.09375 L 0.015625 -7.890625 L 0.390625 -7.984375 L 0.671875 -8.203125 L 1.265625 -8.484375 L 1.953125 -9.03125 L 2.65625 -9.453125 L 3.015625 -9.53125 L 3.328125 -9.34375 L 4.171875 -8.140625 L 4.3125 -7.625 L 4.109375 -7.28125 L 3.5625 -6.875 L 3.265625 -6.71875 L 3 -6.515625 L 2.71875 -6.359375 L 2.453125 -6.109375 L 2.140625 -5.96875 L 1.859375 -5.75 L 1.65625 -5.421875 L 1.71875 -5.078125 L 2.703125 -3.640625 L 2.859375 -3.34375 L 3.203125 -2.921875 L 3.296875 -2.40625 L 3.09375 -2.09375 L 2.453125 -1.578125 L 1.453125 -0.96875 L 1.046875 -0.90625 Z M 0.75 -1.078125 "/></g></g></g><g fill="#4f622a" fill-opacity="1"><g transform="translate(38.557898, 22.20071)"><g><path d="M 9.125 -3.578125 L 8.765625 -3.484375 L 8.359375 -3.5 L 7.96875 -3.609375 L 7.75 -3.859375 L 7.515625 -4.078125 L 7.109375 -4.21875 L 6.703125 -4.25 L 6.375 -4.078125 L 6.109375 -3.984375 L 4.59375 -3.375 L 4.28125 -3.3125 L 3.671875 -3 L 3.359375 -2.921875 L 3.09375 -2.625 L 2.921875 -2.21875 L 2.84375 -1.59375 L 2.671875 -1.1875 L 2.359375 -0.953125 L 1.5 -0.578125 L 1.1875 -0.484375 L 0.578125 -0.21875 L 0.25 -0.1875 L 0.015625 -0.546875 L -0.015625 -0.875 L 0.046875 -1.625 L 0.03125 -1.9375 L 0.09375 -2.21875 L 0.09375 -2.921875 L 0.15625 -3.515625 L 0.15625 -3.875 L 0.21875 -4.171875 L 0.171875 -4.5625 L 0.4375 -8.46875 L 0.4375 -8.796875 L 0.46875 -9.140625 L 0.4375 -9.484375 L 0.515625 -9.78125 L 0.5625 -11.453125 L 0.609375 -11.734375 L 0.59375 -12.0625 L 0.640625 -12.390625 L 0.796875 -12.765625 L 1.21875 -13.125 L 1.796875 -13.171875 L 2.171875 -13 L 2.6875 -12.59375 L 2.875 -12.34375 L 3.15625 -12.125 L 3.375 -11.875 L 5.25 -10.109375 L 5.5 -9.84375 L 6.03125 -9.390625 L 6.234375 -9.1875 L 6.46875 -9 L 6.671875 -8.71875 L 6.96875 -8.484375 L 7.1875 -8.296875 L 8.34375 -7.125 L 8.875 -6.703125 L 9.3125 -6.21875 L 10.046875 -5.578125 L 10.515625 -5.09375 L 10.765625 -4.796875 L 10.859375 -4.40625 L 10.453125 -4.15625 L 9.96875 -3.953125 L 9.6875 -3.859375 Z M 4.09375 -6.015625 L 4.703125 -6.28125 L 4.890625 -6.515625 L 4.828125 -6.796875 L 3.421875 -8.21875 L 3.15625 -8.25 L 3.0625 -8.046875 L 2.984375 -6.09375 L 3.125 -5.8125 L 3.421875 -5.78125 L 3.734375 -5.96875 Z M 4.09375 -6.015625 "/></g></g></g><g fill="#4f622a" fill-opacity="1"><g transform="translate(49.265735, 18.06039)"><g><path d="M 1.15625 -0.796875 L 0.09375 -6.921875 L 0.015625 -7.25 L -0.078125 -7.59375 L -0.125 -8.203125 L -0.203125 -8.53125 L -0.234375 -8.84375 L -0.625 -11.125 L -0.546875 -11.53125 L -0.21875 -11.71875 L 0.09375 -11.8125 L 0.75 -11.859375 L 1.0625 -11.984375 L 1.71875 -12.09375 L 2.0625 -11.953125 L 2.296875 -11.609375 L 2.328125 -11.296875 L 2.53125 -10.375 L 2.609375 -9.71875 L 2.703125 -9.328125 L 3.640625 -3.78125 L 3.8125 -3.453125 L 4.171875 -3.40625 L 4.5 -3.5 L 5.15625 -3.578125 L 5.4375 -3.671875 L 5.78125 -3.671875 L 6.453125 -3.796875 L 6.78125 -3.796875 L 7.09375 -3.921875 L 7.4375 -4.015625 L 7.765625 -3.859375 L 7.984375 -3.390625 L 8.234375 -2.0625 L 8.140625 -1.546875 L 7.859375 -1.3125 L 4.609375 -0.78125 L 4.25 -0.6875 L 3.9375 -0.6875 L 3.328125 -0.546875 L 2.6875 -0.46875 L 2 -0.3125 L 1.65625 -0.28125 L 1.328125 -0.40625 Z M 1.15625 -0.796875 "/></g></g></g><g fill="#4f622a" fill-opacity="1"><g transform="translate(57.440868, 16.360564)"><g><path d="M 6.625 0.578125 L 5.625 0.484375 L 4.265625 -0.015625 L 3.953125 -0.15625 L 2.84375 -0.828125 L 2.65625 -1.09375 L 2.21875 -1.5625 L 1.484375 -2.65625 L 1.328125 -2.96875 L 1.265625 -3.328125 L 1.046875 -3.90625 L 0.90625 -4.96875 L 1.09375 -6.875 L 1.25 -7.578125 L 1.625 -8.46875 L 1.796875 -8.734375 L 2.390625 -9.546875 L 2.875 -10.015625 L 3.421875 -10.34375 L 3.671875 -10.53125 L 4.546875 -11.015625 L 5.1875 -11.15625 L 5.484375 -11.265625 L 5.8125 -11.359375 L 6.15625 -11.40625 L 7.3125 -11.40625 L 8.09375 -11.34375 L 10.21875 -10.546875 L 11.03125 -9.96875 L 11.71875 -9.28125 L 11.921875 -8.96875 L 12.109375 -8.765625 L 12.3125 -8.46875 L 12.421875 -8.171875 L 12.6875 -7.609375 L 12.734375 -7.21875 L 12.859375 -6.859375 L 12.953125 -6.234375 L 12.96875 -5.09375 L 12.828125 -3.9375 L 12.75 -3.59375 L 12.625 -3.328125 L 12.5625 -3 L 12.4375 -2.703125 L 11.71875 -1.578125 L 11.5 -1.296875 L 10.265625 -0.25 L 8.75 0.34375 L 8.109375 0.5 Z M 6.3125 -2.375 L 7.28125 -2.34375 L 7.609375 -2.421875 L 7.90625 -2.4375 L 8.171875 -2.5625 L 8.484375 -2.6875 L 9.015625 -3.046875 L 9.234375 -3.34375 L 9.390625 -3.578125 L 9.59375 -3.828125 L 9.78125 -4.5 L 9.921875 -5.3125 L 9.90625 -6.015625 L 9.796875 -6.328125 L 9.71875 -6.671875 L 9.59375 -6.96875 L 9.25 -7.546875 L 8.75 -7.953125 L 7.890625 -8.390625 L 7.109375 -8.484375 L 6.328125 -8.46875 L 5.984375 -8.40625 L 5.703125 -8.265625 L 5.1875 -7.96875 L 4.9375 -7.75 L 4.703125 -7.5 L 4.53125 -7.234375 L 4.328125 -7 L 4.203125 -6.71875 L 4.0625 -6.109375 L 4.015625 -5.609375 L 4.046875 -4.796875 L 4.3125 -3.84375 L 4.515625 -3.59375 L 4.671875 -3.34375 L 5.171875 -2.890625 L 5.703125 -2.5625 L 6 -2.515625 Z M 6.3125 -2.375 "/></g></g></g><g fill="#4f622a" fill-opacity="1"><g transform="translate(70.279053, 17.414723)"><g/></g></g><g fill="#4f622a" fill-opacity="1"><g transform="translate(74.448457, 18.090566)"><g><path d="M 1.421875 -0.15625 L 2.375 -2.40625 L 2.46875 -2.734375 L 3 -3.953125 L 3.15625 -4.234375 L 3.25 -4.53125 L 3.375 -4.84375 L 3.5 -5.1875 L 3.796875 -5.78125 L 3.90625 -6.09375 L 5.359375 -9.609375 L 5.703125 -9.96875 L 6.046875 -10 L 7 -9.703125 L 7.3125 -9.546875 L 7.59375 -9.34375 L 7.890625 -9.21875 L 8.21875 -9.203125 L 8.515625 -9.0625 L 8.796875 -8.859375 L 9.71875 -8.484375 L 10.15625 -8.328125 L 10.65625 -8.09375 L 11.453125 -7.546875 L 11.953125 -7.09375 L 12.359375 -6.59375 L 12.84375 -5.296875 L 12.90625 -4.984375 L 12.9375 -4.6875 L 12.828125 -3.671875 L 12.75 -3.359375 L 12.375 -2.375 L 11.796875 -1.59375 L 10.75 -0.765625 L 10.453125 -0.65625 L 10.140625 -0.515625 L 9.875 -0.25 L 9.75 0.125 L 9.8125 0.421875 L 9.96875 1.4375 L 10 1.765625 L 10.1875 2.765625 L 10.203125 3.109375 L 10.28125 3.390625 L 10.3125 3.796875 L 10.09375 4.125 L 9.71875 4.125 L 9.21875 3.921875 L 8.953125 3.765625 L 7.71875 3.28125 L 7.265625 2.9375 L 7.046875 2.5 L 6.984375 2.171875 L 7 1.8125 L 6.921875 1.515625 L 6.859375 0.84375 L 6.75 0.25 L 6.71875 -0.078125 L 6.65625 -0.453125 L 6.46875 -0.84375 L 5.640625 -1.34375 L 5.265625 -1.296875 L 5.015625 -1.0625 L 4.578125 -0.078125 L 4.484375 0.25 L 4.328125 0.53125 L 4.109375 1.046875 L 3.796875 1.421875 L 3.234375 1.375 L 2.78125 1.1875 L 2.515625 1.109375 L 2.046875 0.859375 L 1.734375 0.78125 L 1.359375 0.390625 Z M 6.65625 -3.796875 L 7.015625 -3.6875 L 7.734375 -3.34375 L 8.03125 -3.25 L 8.53125 -3.15625 L 8.84375 -3.15625 L 9.078125 -3.234375 L 9.34375 -3.375 L 9.609375 -3.625 L 9.84375 -4.0625 L 9.953125 -4.5 L 9.953125 -4.796875 L 9.765625 -5.421875 L 9.515625 -5.609375 L 9.125 -5.8125 L 8.75 -6.09375 L 8.109375 -6.28125 L 7.796875 -6.40625 L 7.421875 -6.4375 L 7.171875 -6.21875 L 6.875 -5.5625 L 6.796875 -5.3125 L 6.40625 -4.390625 L 6.421875 -4.078125 Z M 6.65625 -3.796875 "/></g></g></g><g fill="#4f622a" fill-opacity="1"><g transform="translate(84.572967, 22.495952)"><g><path d="M 4.59375 3.140625 L 4.375 2.890625 L 3.671875 2.4375 L 3.234375 2.203125 L 2.71875 1.796875 L 2.40625 1.640625 L 1.984375 1.375 L 1.609375 1.03125 L 1.34375 0.890625 L 1.078125 0.71875 L 0.90625 0.40625 L 0.984375 -0.0625 L 1.890625 -1.296875 L 2.203125 -1.4375 L 3.296875 -1.09375 L 3.734375 -1.421875 L 6.515625 -5.6875 L 6.640625 -6.140625 L 6.5 -6.484375 L 6.203125 -6.671875 L 6 -7.015625 L 6.03125 -7.40625 L 6.25 -7.640625 L 6.875 -8.6875 L 7.25 -8.921875 L 7.609375 -8.890625 L 7.9375 -8.671875 L 8.15625 -8.453125 L 9.296875 -7.6875 L 9.59375 -7.578125 L 9.828125 -7.375 L 11.5 -6.25 L 11.65625 -5.953125 L 11.640625 -5.5625 L 10.71875 -4.203125 L 10.4375 -4.078125 L 10.078125 -4.15625 L 9.765625 -4.328125 L 9.375 -4.375 L 9.078125 -4.125 L 8.078125 -2.78125 L 7.46875 -1.734375 L 7.25 -1.46875 L 6.265625 0.0625 L 6.03125 0.296875 L 5.984375 0.71875 L 6.25 1.0625 L 6.53125 1.25 L 6.734375 1.609375 L 6.71875 1.984375 L 5.8125 3.34375 L 5.484375 3.515625 L 5.15625 3.484375 Z M 4.59375 3.140625 "/></g></g></g><g fill="#4f622a" fill-opacity="1"><g transform="translate(90.60141, 26.268249)"><g><path d="M 3.953125 4.109375 L 3.78125 3.84375 L 3.59375 3.515625 L 3.5625 3.078125 L 3.625 2.78125 L 4.265625 1.203125 L 4.4375 0.90625 L 4.515625 0.578125 L 4.703125 -0.046875 L 4.890625 -0.359375 L 5.1875 -1.265625 L 5.34375 -1.578125 L 6.65625 -5 L 6.796875 -5.34375 L 6.828125 -5.65625 L 6.984375 -5.984375 L 7.140625 -6.25 L 7.1875 -6.546875 L 7.8125 -7.9375 L 8.140625 -8.078125 L 8.40625 -7.96875 L 8.859375 -7.53125 L 9.125 -7.328125 L 9.78125 -6.640625 L 9.953125 -6.265625 L 9.9375 -5.875 L 9.390625 -4.640625 L 9.078125 -3.71875 L 8.15625 -1.59375 L 7.953125 -0.96875 L 7.78125 -0.703125 L 7.453125 0.203125 L 7.5625 0.359375 L 7.890625 0.265625 L 8.765625 -0.15625 L 9.109375 -0.265625 L 9.375 -0.421875 L 9.65625 -0.515625 L 9.984375 -0.6875 L 13.65625 -2.21875 L 14.046875 -2.21875 L 14.453125 -2.109375 L 14.84375 -1.625 L 15.109375 -1.40625 L 15.34375 -1.203125 L 15.53125 -0.953125 L 15.75 -0.703125 L 15.921875 -0.453125 L 15.734375 -0.125 L 15.34375 0.109375 L 14.703125 0.296875 L 14.4375 0.453125 L 13.8125 0.703125 L 13.46875 0.796875 L 10.0625 2.234375 L 9.453125 2.390625 L 9.125 2.5625 L 7.609375 3.1875 L 7.265625 3.265625 L 7 3.40625 L 6.625 3.515625 L 6.328125 3.6875 L 5.734375 3.859375 L 5.40625 4.03125 L 4.9375 4.203125 L 4.34375 4.296875 Z M 3.953125 4.109375 "/></g></g></g><g fill="#4f622a" fill-opacity="1"><g transform="translate(98.159675, 33.754957)"><g><path d="M 3.140625 4.84375 L 2.984375 4.546875 L 2.78125 4.296875 L 2.578125 3.96875 L 2.46875 3.65625 L 2.046875 3.125 L 1.90625 2.859375 L 1.65625 2.5625 L 1.015625 1.578125 L 0.9375 1.03125 L 1.21875 0.6875 L 1.515625 0.453125 L 2.5 -0.125 L 2.75 -0.359375 L 3.015625 -0.5 L 5.28125 -1.984375 L 5.5 -2.1875 L 6.65625 -2.921875 L 6.921875 -3.0625 L 7.1875 -3.296875 L 8.546875 -4.171875 L 8.828125 -4.4375 L 9.421875 -4.75 L 9.9375 -5.140625 L 10.328125 -5.1875 L 10.625 -4.953125 L 10.8125 -4.671875 L 11 -4.421875 L 11.15625 -4.15625 L 11.390625 -3.921875 L 11.515625 -3.609375 L 12.296875 -2.484375 L 12.453125 -2.203125 L 12.609375 -1.984375 L 12.78125 -1.6875 L 13 -1.390625 L 13.765625 -0.28125 L 13.875 0 L 14.078125 0.296875 L 14.140625 0.625 L 13.96875 0.921875 L 13.15625 1.515625 L 12.875 1.671875 L 12.59375 1.890625 L 12.25 1.90625 L 11.90625 1.734375 L 11.703125 1.484375 L 10.421875 -0.53125 L 10.1875 -0.734375 L 10.03125 -1.015625 L 9.71875 -1.25 L 9.390625 -1.203125 L 8.953125 -0.921875 L 8.609375 -0.53125 L 8.65625 -0.15625 L 9.21875 0.640625 L 9.5625 1.25 L 9.78125 1.515625 L 10.328125 2.328125 L 10.359375 2.765625 L 10.0625 3.171875 L 8.78125 3.9375 L 8.453125 4.03125 L 8.140625 3.84375 L 7.96875 3.5 L 7.734375 3.25 L 7.375 2.6875 L 7.015625 2.171875 L 6.765625 1.6875 L 6.453125 1.296875 L 6.15625 1.140625 L 5.78125 1.21875 L 4.921875 1.78125 L 4.71875 2.0625 L 4.78125 2.4375 L 5.03125 2.71875 L 5.15625 3.015625 L 5.359375 3.3125 L 5.515625 3.609375 L 5.890625 4.03125 L 6.34375 4.75 L 6.46875 5.03125 L 6.703125 5.328125 L 6.78125 5.703125 L 6.59375 6.046875 L 5.203125 6.96875 L 4.8125 7.015625 L 4.484375 6.796875 Z M 3.140625 4.84375 "/></g></g></g><g fill="#4f622a" fill-opacity="1"><g transform="translate(103.251622, 41.137204)"><g><path d="M 1.09375 0.90625 L 3.375 0 L 3.6875 -0.125 L 4.9375 -0.609375 L 5.234375 -0.703125 L 5.515625 -0.828125 L 5.828125 -0.96875 L 6.171875 -1.109375 L 6.796875 -1.3125 L 7.09375 -1.453125 L 10.625 -2.859375 L 11.125 -2.859375 L 11.390625 -2.65625 L 11.828125 -1.765625 L 11.921875 -1.4375 L 12 -1.078125 L 12.125 -0.78125 L 12.3125 -0.53125 L 12.4375 -0.21875 L 12.484375 0.109375 L 12.84375 1.046875 L 13.046875 1.484375 L 13.234375 1.96875 L 13.390625 2.9375 L 13.421875 3.59375 L 13.34375 4.25 L 12.765625 5.5 L 12.578125 5.765625 L 12.375 6 L 11.59375 6.625 L 11.296875 6.796875 L 10.34375 7.1875 L 9.375 7.34375 L 8.046875 7.171875 L 7.765625 7.03125 L 7.453125 6.90625 L 7.0625 6.90625 L 6.71875 7.0625 L 6.546875 7.328125 L 5.9375 8.15625 L 5.703125 8.40625 L 5.125 9.21875 L 4.890625 9.484375 L 4.734375 9.734375 L 4.46875 10.046875 L 4.09375 10.09375 L 3.84375 9.84375 L 3.625 9.328125 L 3.53125 9.03125 L 3.046875 7.828125 L 2.984375 7.234375 L 3.125 6.796875 L 3.328125 6.53125 L 3.578125 6.28125 L 3.734375 6.015625 L 4.1875 5.5 L 4.515625 5 L 4.75 4.765625 L 4.984375 4.453125 L 5.109375 4.046875 L 4.90625 3.09375 L 4.609375 2.875 L 4.25 2.859375 L 3.25 3.21875 L 2.9375 3.390625 L 2.65625 3.46875 L 2.125 3.671875 L 1.625 3.703125 L 1.265625 3.265625 L 1.09375 2.8125 L 0.953125 2.578125 L 0.8125 2.0625 L 0.640625 1.78125 L 0.671875 1.25 Z M 7.375 2.125 L 7.53125 2.46875 L 7.796875 3.21875 L 7.921875 3.5 L 8.203125 3.90625 L 8.453125 4.125 L 8.640625 4.25 L 8.9375 4.328125 L 9.3125 4.34375 L 9.78125 4.21875 L 10.15625 3.984375 L 10.375 3.78125 L 10.703125 3.21875 L 10.671875 2.90625 L 10.53125 2.5 L 10.46875 2.015625 L 10.140625 1.4375 L 10.046875 1.109375 L 9.796875 0.828125 L 9.453125 0.8125 L 8.78125 1.03125 L 8.546875 1.171875 L 7.609375 1.53125 L 7.40625 1.75 Z M 7.375 2.125 "/></g></g></g></g></g><g transform="matrix(1, 0, 0, 1, 20, 23)"><g clip-path="url(#403b450a15)"><g clip-path="url(#37863daced)"><path fill="#4f622a" d="M 94.699219 42.347656 C 92.570312 41.71875 90.15625 41.136719 87.492188 40.609375 C 86.203125 40.355469 84.855469 40.113281 83.453125 39.886719 C 82.671875 39.761719 81.878906 39.640625 81.066406 39.523438 C 80.503906 39.441406 79.933594 39.363281 79.355469 39.289062 C 79.230469 39.273438 79.105469 39.253906 78.980469 39.238281 C 71.117188 38.222656 61.941406 37.636719 52.144531 37.636719 C 47.816406 37.636719 43.609375 37.75 39.578125 37.96875 C 36.117188 38.152344 32.785156 38.414062 29.625 38.738281 C 28.652344 38.839844 27.691406 38.945312 26.753906 39.058594 C 26.136719 39.132812 25.53125 39.207031 24.933594 39.289062 C 24.355469 39.363281 23.785156 39.441406 23.222656 39.523438 C 22.414062 39.640625 21.617188 39.761719 20.839844 39.886719 C 19.4375 40.113281 18.089844 40.355469 16.796875 40.609375 C 14.136719 41.136719 11.71875 41.71875 9.589844 42.347656 C 11.523438 41.359375 13.9375 40.445312 16.746094 39.628906 C 18.019531 39.257812 19.375 38.90625 20.808594 38.582031 C 21.585938 38.402344 22.386719 38.230469 23.207031 38.0625 C 23.769531 37.949219 24.34375 37.839844 24.925781 37.730469 C 26.179688 37.503906 27.476562 37.289062 28.8125 37.089844 C 29.179688 37.039062 29.546875 36.984375 29.921875 36.933594 C 33.125 36.488281 36.542969 36.136719 40.128906 35.890625 C 43.96875 35.628906 47.996094 35.488281 52.144531 35.488281 C 53.019531 35.488281 53.890625 35.496094 54.753906 35.507812 C 56.121094 35.527344 57.472656 35.5625 58.808594 35.613281 C 65.679688 35.863281 72.085938 36.503906 77.699219 37.441406 C 78.261719 37.535156 78.820312 37.632812 79.363281 37.730469 C 79.949219 37.839844 80.519531 37.949219 81.085938 38.0625 C 81.90625 38.230469 82.707031 38.402344 83.484375 38.582031 C 84.914062 38.90625 86.269531 39.257812 87.542969 39.628906 C 90.355469 40.445312 92.769531 41.359375 94.699219 42.347656 Z M 94.699219 42.347656 " fill-opacity="1" fill-rule="nonzero"/></g><g clip-path="url(#5bfb7be7eb)"><path fill="#4f622a" d="M 94.699219 42.347656 C 92.570312 41.71875 90.15625 41.136719 87.492188 40.609375 C 86.203125 40.355469 84.855469 40.113281 83.453125 39.886719 C 82.671875 39.761719 81.878906 39.640625 81.066406 39.523438 C 80.503906 39.441406 79.933594 39.363281 79.355469 39.289062 C 79.230469 39.273438 79.105469 39.253906 78.980469 39.238281 C 71.117188 38.222656 61.941406 37.636719 52.144531 37.636719 C 47.816406 37.636719 43.609375 37.75 39.578125 37.96875 C 36.117188 38.152344 32.785156 38.414062 29.625 38.738281 C 28.652344 38.839844 27.691406 38.945312 26.753906 39.058594 C 26.136719 39.132812 25.53125 39.207031 24.933594 39.289062 C 24.355469 39.363281 23.785156 39.441406 23.222656 39.523438 C 22.414062 39.640625 21.617188 39.761719 20.839844 39.886719 C 19.4375 40.113281 18.089844 40.355469 16.796875 40.609375 C 14.136719 41.136719 11.71875 41.71875 9.589844 42.347656 C 11.523438 41.359375 13.9375 40.445312 16.746094 39.628906 C 18.019531 39.257812 19.375 38.90625 20.808594 38.582031 C 21.585938 38.402344 22.386719 38.230469 23.207031 38.0625 C 23.769531 37.949219 24.34375 37.839844 24.925781 37.730469 C 26.179688 37.503906 27.476562 37.289062 28.8125 37.089844 C 29.179688 37.039062 29.546875 36.984375 29.921875 36.933594 C 33.125 36.488281 36.542969 36.136719 40.128906 35.890625 C 43.96875 35.628906 47.996094 35.488281 52.144531 35.488281 C 53.019531 35.488281 53.890625 35.496094 54.753906 35.507812 C 56.121094 35.527344 57.472656 35.5625 58.808594 35.613281 C 65.679688 35.863281 72.085938 36.503906 77.699219 37.441406 C 78.261719 37.535156 78.820312 37.632812 79.363281 37.730469 C 79.949219 37.839844 80.519531 37.949219 81.085938 38.0625 C 81.90625 38.230469 82.707031 38.402344 83.484375 38.582031 C 84.914062 38.90625 86.269531 39.257812 87.542969 39.628906 C 90.355469 40.445312 92.769531 41.359375 94.699219 42.347656 Z M 94.699219 42.347656 " fill-opacity="1" fill-rule="nonzero"/></g><g clip-path="url(#384b6a9177)"><g transform="matrix(1, 0, 0, 1, 33, -0.000000000000007105)"><g clip-path="url(#e978f01360)"><g clip-path="url(#229345a643)"><path fill="#6e5c2a" d="M 0.582031 16.035156 L 0.402344 16.035156 L 0.402344 16.210938 C 0.523438 16.332031 0.582031 16.449219 0.582031 16.566406 C 0.699219 16.566406 0.9375 16.628906 1.292969 16.746094 L 2.003906 16.746094 C 2.003906 16.628906 2.597656 16.210938 3.78125 15.5 C 4.96875 14.671875 6.035156 14.019531 6.984375 13.546875 C 8.050781 13.191406 8.996094 12.773438 9.828125 12.300781 C 10.65625 11.828125 11.546875 11.234375 12.496094 10.523438 C 13.5625 9.8125 14.453125 9.335938 15.164062 9.097656 C 15.992188 8.863281 16.644531 8.386719 17.117188 7.675781 L 17.828125 6.609375 L 17.828125 6.433594 L 18.007812 6.433594 L 18.007812 6.253906 L 18.1875 6.253906 L 18.1875 6.078125 L 18.363281 6.078125 L 18.363281 5.898438 L 18.71875 5.898438 L 18.71875 5.722656 L 18.898438 5.722656 L 18.898438 5.542969 L 19.074219 5.542969 L 18.898438 7.320312 C 18.777344 8.386719 18.601562 9.039062 18.363281 9.277344 C 18.007812 9.394531 17.59375 9.574219 17.117188 9.8125 C 16.527344 10.046875 16.109375 10.464844 15.875 11.054688 C 15.519531 11.648438 15.164062 12.003906 14.808594 12.121094 C 14.570312 12.242188 14.390625 12.300781 14.273438 12.300781 L 14.09375 12.300781 L 13.738281 12.65625 L 13.5625 12.65625 L 13.5625 12.832031 L 13.382812 12.832031 L 13.382812 13.011719 L 13.738281 13.011719 L 14.453125 13.191406 C 14.925781 13.308594 15.339844 13.367188 15.695312 13.367188 C 16.050781 13.367188 16.703125 13.425781 17.652344 13.546875 L 18.898438 13.722656 L 19.253906 13.367188 L 19.429688 13.367188 L 19.429688 13.011719 C 19.429688 12.773438 19.253906 12.539062 18.898438 12.300781 L 18.363281 11.945312 L 18.363281 11.589844 L 18.542969 11.589844 L 18.71875 11.410156 C 18.835938 11.292969 19.191406 11.113281 19.785156 10.878906 C 20.378906 10.640625 20.792969 9.988281 21.03125 8.921875 L 21.5625 7.5 L 21.5625 7.320312 L 21.742188 7.320312 L 21.921875 7.144531 L 22.277344 7.144531 L 22.277344 7.5 L 22.453125 7.675781 L 22.632812 8.03125 L 23.519531 11.234375 C 24.113281 13.484375 24.882812 15.265625 25.832031 16.566406 C 26.660156 17.753906 27.492188 19 28.320312 20.300781 C 29.03125 21.488281 29.507812 22.378906 29.746094 22.96875 C 29.980469 23.445312 30.101562 23.859375 30.101562 24.214844 L 30.101562 24.75 L 30.457031 25.105469 L 30.8125 25.105469 L 30.8125 24.214844 C 30.8125 23.621094 30.574219 22.734375 30.101562 21.546875 C 29.625 20.242188 28.972656 18.9375 28.144531 17.636719 C 27.3125 16.332031 26.660156 15.027344 26.1875 13.722656 L 25.476562 11.589844 L 25.476562 10.523438 L 26.542969 10.523438 L 26.722656 10.699219 L 26.898438 10.878906 L 27.078125 10.878906 L 27.078125 11.054688 L 27.253906 11.054688 L 27.789062 12.300781 C 28.144531 13.128906 28.796875 14.789062 29.746094 17.28125 C 30.691406 19.769531 31.820312 22.199219 33.121094 24.570312 C 34.425781 26.824219 35.789062 28.777344 37.214844 30.4375 C 38.515625 31.859375 39.703125 32.929688 40.769531 33.640625 C 41.835938 34.351562 43.023438 34.945312 44.324219 35.417969 C 45.511719 35.890625 46.164062 36.1875 46.28125 36.308594 L 46.460938 36.484375 L 46.816406 36.484375 L 46.816406 36.664062 L 46.992188 36.664062 L 46.992188 36.839844 L 47.527344 36.839844 L 47.527344 37.019531 L 47.527344 36.484375 L 47.347656 36.484375 L 47.347656 36.308594 L 47.171875 36.308594 L 47.171875 36.128906 L 46.992188 36.128906 L 46.992188 35.949219 L 46.816406 35.949219 L 46.816406 35.773438 L 46.636719 35.773438 L 46.636719 35.59375 C 46.519531 35.59375 45.332031 34.824219 43.082031 33.285156 C 40.710938 31.625 39.226562 30.496094 38.636719 29.90625 C 37.925781 29.3125 37.09375 28.1875 36.144531 26.527344 C 35.199219 24.867188 34.367188 23.324219 33.65625 21.902344 C 33.183594 20.597656 33.359375 19.472656 34.191406 18.523438 C 35.136719 17.457031 35.910156 16.925781 36.5 16.925781 C 36.976562 16.925781 37.507812 17.042969 38.101562 17.28125 C 38.695312 17.515625 39.167969 17.992188 39.523438 18.703125 C 39.878906 19.414062 40.53125 21.308594 41.480469 24.390625 L 42.902344 28.839844 L 43.082031 29.015625 L 43.257812 29.371094 L 43.257812 29.90625 L 43.4375 29.90625 L 43.4375 30.082031 L 43.613281 30.082031 L 43.613281 29.371094 L 43.4375 28.839844 L 43.257812 28.304688 L 43.257812 27.769531 L 43.4375 27.769531 L 43.4375 27.949219 L 43.613281 27.949219 L 43.613281 28.125 L 43.792969 28.304688 L 43.96875 28.484375 L 43.96875 28.660156 L 44.148438 28.660156 L 44.148438 28.839844 L 44.324219 28.839844 L 45.039062 29.90625 C 45.628906 30.734375 45.925781 31.148438 45.925781 31.148438 L 46.105469 31.148438 L 46.105469 31.328125 L 46.28125 31.328125 L 46.28125 31.503906 L 46.992188 31.503906 L 47.347656 31.859375 L 47.703125 31.859375 L 47.703125 31.683594 L 47.527344 31.683594 L 47.527344 31.328125 L 47.347656 31.328125 L 47.347656 31.148438 L 47.171875 31.148438 L 47.171875 30.792969 L 46.992188 30.617188 C 46.875 30.496094 46.28125 29.429688 45.214844 27.414062 C 44.148438 25.398438 43.496094 24.035156 43.257812 23.324219 L 42.902344 22.4375 L 42.902344 21.726562 L 43.082031 21.726562 L 43.082031 21.546875 L 43.4375 21.546875 L 43.4375 21.726562 L 43.613281 21.726562 L 43.613281 22.082031 L 43.792969 22.082031 L 43.792969 22.257812 L 43.96875 22.257812 L 43.96875 22.613281 L 47.171875 28.304688 C 49.304688 32.097656 50.492188 34.171875 50.726562 34.527344 L 51.082031 35.0625 L 51.082031 35.238281 L 51.261719 35.238281 L 51.261719 35.417969 L 51.4375 35.417969 L 51.4375 35.773438 L 51.617188 35.773438 L 51.617188 35.949219 L 51.792969 35.949219 L 51.792969 36.308594 L 51.972656 36.308594 L 51.972656 36.484375 L 52.863281 37.195312 L 53.929688 38.261719 L 54.105469 38.261719 L 54.105469 38.441406 L 54.285156 38.441406 L 54.285156 38.617188 L 54.460938 38.617188 L 54.460938 38.796875 L 54.640625 38.796875 L 54.640625 38.972656 L 54.816406 38.972656 L 55.171875 39.328125 L 55.351562 39.328125 L 55.527344 39.507812 L 55.707031 39.507812 L 55.707031 39.152344 L 55.351562 39.152344 L 55.351562 38.796875 L 54.996094 38.441406 L 54.996094 38.261719 L 54.816406 38.261719 L 54.816406 38.085938 C 54.699219 38.085938 54.285156 37.550781 53.574219 36.484375 C 52.863281 35.300781 51.972656 33.640625 50.90625 31.503906 L 49.304688 28.484375 L 49.128906 28.304688 L 48.949219 28.125 L 48.949219 27.769531 L 48.773438 27.769531 L 48.773438 27.59375 L 48.59375 27.59375 L 48.59375 27.414062 C 48.59375 27.296875 47.765625 25.578125 46.105469 22.257812 C 44.445312 18.9375 43.4375 17.042969 43.082031 16.566406 C 42.605469 16.09375 42.191406 15.855469 41.835938 15.855469 C 41.363281 15.855469 40.945312 15.5625 40.589844 14.96875 C 40.234375 14.492188 39.703125 13.722656 38.992188 12.65625 C 38.28125 11.589844 37.804688 10.9375 37.570312 10.699219 L 37.035156 10.523438 L 36.679688 10.523438 L 36.144531 10.699219 C 35.910156 10.9375 35.316406 11.648438 34.367188 12.832031 C 33.65625 14.019531 33.183594 14.789062 32.945312 15.144531 C 32.707031 15.382812 32.53125 15.5 32.410156 15.5 L 32.234375 15.5 L 32.234375 15.679688 L 32.054688 15.855469 L 31.878906 16.035156 L 31.878906 16.210938 L 31.167969 16.210938 L 31.167969 15.679688 L 29.921875 13.011719 C 29.09375 11.234375 28.441406 10.046875 27.964844 9.457031 C 27.375 8.980469 26.78125 8.449219 26.1875 7.855469 C 25.476562 7.261719 24.527344 6.136719 23.34375 4.476562 C 22.15625 2.816406 21.445312 1.867188 21.207031 1.632812 C 20.851562 1.394531 20.378906 1.15625 19.785156 0.917969 C 19.191406 0.917969 18.480469 1.214844 17.652344 1.808594 C 16.941406 2.402344 16.109375 3.054688 15.164062 3.765625 C 14.453125 4.59375 13.679688 5.542969 12.851562 6.609375 C 12.019531 7.796875 11.191406 8.742188 10.363281 9.457031 C 9.414062 10.167969 7.992188 11.113281 6.09375 12.300781 C 4.195312 13.484375 2.832031 14.316406 2.003906 14.789062 C 1.292969 15.5 0.878906 15.855469 0.757812 15.855469 C 0.640625 15.855469 0.582031 15.917969 0.582031 16.035156 Z M 0.582031 16.035156 " fill-opacity="1" fill-rule="evenodd"/></g></g></g></g><g clip-path="url(#76591d561e)"><path fill="#2c2d0c" d="M 37.535156 49.527344 C 45.144531 44.960938 48.019531 46.3125 50.050781 46.820312 C 55.292969 48.003906 61.71875 50.371094 66.453125 50.542969 C 60.875 49.359375 59.351562 48.851562 57.828125 48.34375 C 62.5625 49.019531 61.886719 50.371094 80.488281 50.542969 C 65.777344 52.570312 58.167969 50.203125 52.417969 48.34375 C 46.667969 46.3125 44.976562 46.144531 37.535156 49.527344 Z M 18.089844 13.84375 C 19.101562 14.011719 20.457031 14.859375 22.484375 16.382812 C 20.792969 14.691406 19.441406 13.675781 18.257812 13.507812 C 17.242188 13.335938 16.226562 14.011719 15.382812 15.367188 C 16.566406 14.351562 17.410156 13.84375 18.089844 13.84375 Z M 79.984375 53.078125 C 80.996094 53.246094 82.179688 53.585938 83.535156 54.261719 C 86.070312 55.109375 87.085938 56.628906 86.917969 57.984375 C 90.636719 57.984375 90.976562 59.503906 84.886719 59.84375 C 80.996094 60.179688 79.476562 60.519531 73.050781 60.011719 C 74.910156 60.011719 75.417969 59.671875 77.953125 59.503906 C 76.09375 59.335938 72.878906 59.503906 71.019531 59.167969 C 73.894531 58.828125 76.769531 58.488281 79.476562 58.320312 C 78.628906 57.644531 77.613281 56.796875 76.261719 55.785156 C 74.402344 56.96875 72.035156 58.488281 68.992188 60.179688 L 73.386719 61.027344 L 66.960938 61.195312 C 59.6875 61.535156 42.609375 60.011719 29.25 59.503906 L 52.585938 58.996094 L 32.125 58.488281 C 27.558594 58.320312 24.851562 58.320312 18.425781 57.8125 C 18.089844 57.476562 24.515625 57.476562 24.007812 56.96875 C 21.640625 54.769531 19.609375 51.554688 23.332031 51.386719 C 27.558594 50.710938 30.601562 50.371094 33.140625 49.863281 C 30.601562 50.878906 27.726562 51.386719 24.007812 52.0625 C 34.828125 51.386719 36.015625 48.511719 41.425781 46.484375 C 41.085938 45.636719 39.394531 41.578125 39.394531 39.886719 C 39.734375 39.886719 40.242188 40.226562 40.917969 40.734375 C 40.242188 39.550781 39.058594 39.042969 37.027344 38.871094 C 35.507812 38.703125 33.644531 38.195312 31.449219 37.351562 C 29.757812 35.996094 29.757812 34.8125 31.449219 33.96875 C 32.96875 33.125 35.507812 32.785156 39.226562 32.953125 C 39.902344 33.125 40.917969 32.953125 42.101562 32.617188 L 30.09375 25.511719 L 42.949219 31.601562 L 27.558594 23.820312 C 25.699219 22.808594 23.835938 22.976562 19.273438 20.945312 C 15.042969 19.257812 13.015625 18.070312 15.382812 14.859375 C 17.75 11.308594 20.960938 13.84375 24.34375 17.566406 C 25.867188 19.257812 28.066406 20.945312 29.082031 21.960938 L 43.453125 31.601562 C 44.636719 30.753906 43.625 32.445312 43.117188 32.785156 C 43.453125 32.953125 43.792969 32.617188 44.132812 32.109375 C 44.46875 31.261719 44.808594 31.09375 45.992188 32.109375 C 45.652344 31.601562 45.484375 30.925781 45.484375 30.078125 C 45.652344 29.742188 45.992188 29.742188 46.328125 29.910156 C 46.328125 29.570312 45.992188 29.570312 45.652344 29.742188 C 45.484375 29.234375 45.484375 28.558594 45.652344 28.050781 C 45.484375 26.359375 46.328125 25.175781 48.191406 24.5 C 48.359375 23.992188 48.695312 23.992188 49.035156 24.328125 C 49.882812 24.328125 50.894531 24.5 51.910156 24.835938 C 52.925781 25.34375 53.433594 26.359375 53.433594 27.710938 L 52.417969 27.542969 L 54.785156 28.386719 C 55.460938 28.558594 55.460938 28.726562 55.125 28.894531 C 54.445312 28.558594 53.941406 28.386719 53.433594 28.558594 C 53.433594 28.558594 53.433594 28.726562 53.433594 28.894531 C 53.433594 29.402344 53.261719 29.910156 53.09375 30.585938 C 53.433594 31.601562 52.25 34.984375 50.386719 35.320312 C 50.726562 35.492188 51.066406 35.828125 51.570312 35.492188 C 52.078125 35.492188 52.753906 35.996094 53.09375 36.675781 C 54.785156 37.183594 56.136719 38.367188 56.816406 40.058594 L 46.835938 34.644531 L 62.902344 44.117188 L 54.953125 40.5625 L 63.917969 44.960938 L 63.578125 44.621094 C 63.917969 44.285156 64.253906 44.117188 64.761719 44.285156 C 65.101562 44.792969 64.761719 45.46875 64.085938 46.144531 C 65.269531 45.804688 64.933594 44.453125 65.4375 44.792969 C 66.117188 45.300781 65.269531 46.144531 64.933594 46.652344 C 65.269531 46.484375 65.777344 45.976562 65.945312 45.46875 C 65.945312 45.128906 66.117188 45.300781 66.285156 45.300781 C 66.453125 45.46875 66.453125 45.636719 66.453125 45.804688 C 66.285156 45.976562 66.285156 46.3125 65.777344 46.820312 C 66.117188 46.820312 66.453125 46.3125 66.621094 45.976562 C 66.792969 45.636719 66.960938 45.976562 66.960938 45.976562 C 66.960938 46.3125 66.792969 46.484375 66.285156 46.992188 C 66.453125 46.992188 66.792969 46.820312 67.128906 46.484375 C 67.300781 45.976562 67.636719 46.652344 67.46875 46.992188 L 70.851562 49.359375 C 71.359375 49.1875 74.742188 49.527344 77.277344 49.695312 C 79.8125 49.863281 83.195312 49.1875 82.519531 50.542969 C 81.84375 51.386719 80.996094 52.234375 79.984375 53.078125 Z M 35.84375 36.503906 C 37.367188 36.335938 38.550781 35.828125 39.226562 35.492188 C 40.074219 34.984375 40.917969 34.476562 41.425781 33.96875 C 41.085938 34.644531 40.074219 35.996094 35.84375 36.503906 Z M 45.992188 32.109375 C 45.992188 32.109375 45.992188 32.109375 46.160156 32.277344 C 45.992188 32.109375 45.992188 32.109375 45.992188 32.109375 Z M 57.152344 42.425781 L 62.902344 45.804688 C 62.5625 46.3125 62.5625 46.652344 62.902344 46.992188 C 63.070312 47.328125 62.226562 47.667969 61.042969 47.496094 C 62.394531 47.328125 62.394531 47.160156 62.394531 47.160156 C 57.660156 45.46875 58.167969 45.128906 57.152344 42.425781 Z M 45.652344 32.785156 C 45.992188 32.953125 45.484375 33.800781 44.976562 33.96875 C 45.316406 33.628906 45.652344 33.125 45.652344 32.785156 Z M 45.144531 32.445312 C 45.484375 32.785156 44.976562 33.460938 44.46875 33.628906 C 44.808594 33.292969 45.144531 32.785156 45.144531 32.445312 Z M 44.636719 32.109375 C 44.976562 32.445312 44.46875 32.953125 43.960938 33.125 C 44.46875 32.785156 44.636719 32.445312 44.636719 32.109375 Z M 44.636719 32.109375 " fill-opacity="1" fill-rule="evenodd"/></g><g clip-path="url(#4bf5098b05)"><path fill="#34629d" d="M 11.851562 59.003906 C 11.300781 58.6875 12.417969 58.484375 11.089844 58.589844 C 10.21875 58.65625 8.027344 58.574219 7.71875 58.265625 C 7.601562 58.148438 7.691406 57.773438 7.859375 57.683594 C 7.871094 57.675781 9.421875 57.398438 9.976562 57.285156 C 7.152344 57.28125 7.1875 57.296875 6.898438 57.183594 C 4.484375 56.25 12.316406 56.011719 10.882812 55.890625 C 10.421875 55.851562 5.410156 56.226562 5.316406 55.253906 C 5.214844 54.15625 9.777344 54.179688 6.445312 54.121094 C 4.671875 54.089844 3.699219 54.070312 3.699219 53.648438 C 3.699219 53.210938 4.054688 53.042969 8.136719 52.414062 C 13.042969 51.660156 0.597656 53.472656 0.203125 51.917969 C -0.0976562 50.710938 5.445312 50.542969 6.898438 50.5 C 9.847656 50.414062 7.027344 50.199219 4.089844 50.058594 C 2.894531 50.003906 1.054688 49.976562 1.054688 49.445312 C 1.054688 48.578125 4.292969 48.585938 5.371094 48.554688 C 6.589844 48.519531 15.203125 48.1875 14.039062 47.839844 C 13.710938 47.742188 7.96875 47.824219 8.46875 47.273438 C 9.046875 46.632812 17.214844 46.640625 14.722656 46.367188 C 14.222656 46.3125 7.5 46.085938 6.777344 45.558594 C 5.320312 44.488281 24.65625 44.226562 24.109375 44.066406 C 22.558594 43.605469 11.460938 44.433594 11.460938 43.765625 C 11.460938 42.695312 30.046875 41.929688 29.667969 42.917969 C 29.507812 43.335938 27.894531 43.414062 28.140625 43.429688 C 30.6875 43.605469 31.359375 43.742188 31.359375 44.089844 C 31.359375 45.625 13.277344 45.472656 24.28125 45.476562 C 31.066406 45.480469 31.945312 46.550781 24.691406 47.273438 C 17.367188 48.003906 14.40625 48.058594 20.707031 48.328125 C 22.683594 48.414062 22.457031 49.621094 11.707031 50.148438 C 4.34375 50.507812 28.65625 49.554688 16.488281 51.492188 C 14.507812 51.804688 16.429688 51.597656 17.605469 51.96875 C 18.195312 52.15625 18.167969 52.59375 17.527344 52.824219 C 17.238281 52.925781 17.238281 52.914062 17.886719 52.992188 C 23.566406 53.652344 12.863281 54.480469 12.496094 54.105469 C 12.496094 54.105469 16.144531 54.507812 17.097656 55.046875 C 17.382812 55.210938 17.941406 55.878906 16.007812 56.273438 C 15.332031 56.410156 12.917969 56.691406 13.214844 56.71875 C 15.652344 56.941406 19.59375 56.585938 19.59375 57.164062 C 19.59375 57.472656 16.359375 57.867188 16.1875 57.886719 C 14.730469 58.0625 18.917969 57.941406 18.105469 58.753906 C 17.625 59.234375 22.03125 58.59375 22.03125 59.433594 C 22.03125 59.785156 21.480469 60.011719 21.050781 60.230469 C 21.175781 60.253906 22.863281 60.613281 22.960938 60.695312 C 23.976562 61.53125 18.40625 61.390625 18.40625 61.390625 C 17.433594 61.304688 17.15625 61.054688 17.890625 60.320312 C 17.363281 60.320312 15.4375 60.253906 15.066406 59.886719 C 14.421875 59.238281 16.839844 58.941406 14.496094 59.144531 C 13.933594 59.191406 12.339844 59.289062 11.851562 59.003906 Z M 11.851562 59.003906 " fill-opacity="1" fill-rule="nonzero"/></g><g clip-path="url(#7fe2fd455a)"><path fill="#d19a27" d="M 86 42.449219 L 85.820312 42.453125 C 85.089844 42.484375 84.1875 42.550781 83.121094 42.648438 L 82.808594 42.78125 C 82.582031 42.9375 82.429688 43.113281 82.347656 43.300781 C 82.886719 43.402344 83.292969 43.707031 83.570312 44.207031 C 83.210938 44.105469 82.808594 43.933594 82.355469 43.699219 C 82.402344 43.996094 82.492188 44.226562 82.632812 44.386719 C 83.175781 45.003906 84.070312 45.652344 85.3125 46.324219 C 86.546875 46.984375 88.417969 47.839844 90.921875 48.882812 C 91.542969 49.289062 91.988281 49.816406 92.257812 50.46875 C 92.394531 50.902344 92.34375 51.296875 92.109375 51.648438 C 91.929688 51.929688 91.574219 52.207031 91.039062 52.484375 C 90.589844 52.628906 90.167969 52.6875 89.761719 52.660156 C 89.539062 52.65625 88.941406 52.523438 87.96875 52.257812 C 87.707031 52.238281 87.453125 52.277344 87.207031 52.378906 C 87.574219 52.476562 87.808594 52.558594 87.910156 52.628906 C 89.027344 53.570312 89.773438 54.082031 90.148438 54.15625 C 90.207031 54.417969 90.386719 54.808594 90.6875 55.324219 C 90.730469 55.449219 90.753906 55.570312 90.761719 55.691406 C 90.789062 56.027344 90.652344 56.582031 90.351562 57.351562 C 90.695312 57.203125 91.101562 56.714844 91.570312 55.890625 C 91.726562 55.550781 91.867188 55.019531 91.992188 54.289062 C 92.113281 53.957031 92.207031 53.753906 92.273438 53.679688 L 94.003906 52.09375 C 94.257812 51.835938 94.480469 51.53125 94.671875 51.1875 C 94.863281 50.738281 94.984375 50.304688 95.035156 49.886719 C 95.070312 49.777344 95.074219 49.472656 95.042969 48.972656 C 95.019531 48.773438 94.976562 48.578125 94.917969 48.390625 C 94.753906 47.761719 94.476562 47.164062 94.09375 46.597656 C 93.902344 46.316406 93.683594 46.039062 93.4375 45.773438 C 93.347656 45.628906 92.914062 45.246094 92.140625 44.621094 C 92.078125 44.515625 92.121094 44.398438 92.273438 44.265625 C 92.320312 44.21875 92.5 44.171875 92.8125 44.128906 C 92.824219 44.117188 92.820312 44.097656 92.804688 44.074219 C 92.71875 44.007812 92.636719 43.949219 92.550781 43.890625 C 92.21875 43.660156 91.816406 43.476562 91.339844 43.332031 C 90.8125 43.277344 90.273438 43.257812 89.71875 43.273438 C 87.617188 42.65625 86.378906 42.382812 86 42.449219 " fill-opacity="1" fill-rule="nonzero"/></g><path fill="#d19a27" d="M 85.75 46.199219 L 85.730469 46.347656 C 85.707031 46.550781 85.699219 46.75 85.703125 46.945312 C 85.726562 47.332031 85.746094 47.53125 85.769531 47.542969 C 85.804688 47.578125 85.851562 47.574219 85.910156 47.53125 C 85.972656 47.492188 86.097656 47.371094 86.292969 47.160156 C 86.320312 47.140625 86.355469 47.144531 86.394531 47.164062 C 86.433594 47.191406 86.480469 47.234375 86.523438 47.300781 C 86.757812 47.691406 86.90625 47.914062 86.960938 47.976562 C 87.109375 48.164062 87.238281 48.308594 87.34375 48.402344 C 87.488281 48.554688 87.664062 48.6875 87.867188 48.796875 C 87.933594 48.824219 87.976562 48.792969 87.992188 48.710938 C 87.960938 48.390625 87.953125 48.09375 87.96875 47.828125 C 87.976562 47.695312 87.992188 47.566406 88.011719 47.445312 L 88.042969 47.273438 C 88.066406 47.160156 88.097656 47.050781 88.132812 46.953125 L 85.75 46.199219 " fill-opacity="1" fill-rule="nonzero"/><path fill="#d19a27" d="M 89.875 47.890625 L 89.886719 48.042969 C 89.945312 48.488281 90.203125 49.226562 90.671875 50.257812 C 90.742188 50.394531 90.816406 50.519531 90.886719 50.632812 C 90.921875 50.707031 91.023438 50.847656 91.195312 51.058594 C 91.316406 51.210938 91.453125 51.3125 91.601562 51.371094 C 91.628906 51.378906 91.65625 51.355469 91.683594 51.296875 C 91.695312 51.265625 91.707031 51.203125 91.710938 51.113281 C 91.714844 51.035156 91.671875 50.578125 91.574219 49.738281 C 91.5625 49.546875 91.554688 49.34375 91.558594 49.125 C 91.570312 48.730469 91.621094 48.390625 91.710938 48.109375 L 89.875 47.890625 " fill-opacity="1" fill-rule="nonzero"/></g></g><g clip-path="url(#349942164b)"><path fill="#231f20" d="M 55.234375 27.054688 C 55.285156 26.898438 56.273438 26.984375 57.472656 27.542969 C 59.117188 28.3125 58.828125 28.273438 59.152344 27.605469 C 60.855469 24.117188 63.453125 23.921875 62.839844 24.433594 C 61.503906 25.550781 60.351562 27.433594 59.9375 28.539062 C 59.164062 30.59375 59.691406 29.121094 56.976562 27.664062 C 56.050781 27.164062 55.234375 27.054688 55.234375 27.054688 Z M 53.34375 33.234375 C 53.929688 33.609375 54.523438 34.378906 54.675781 34.136719 C 54.675781 34.136719 54.984375 31.992188 55.488281 30.996094 C 55.878906 30.226562 54.921875 31.175781 54.667969 31.550781 C 53.460938 33.328125 54.691406 33.175781 52.449219 32.625 C 50.667969 32.191406 52.675781 32.804688 53.34375 33.234375 Z M 53.34375 33.234375 " fill-opacity="1" fill-rule="nonzero"/></g><g clip-path="url(#3202474bf1)"><path fill="#231f20" d="M 85.328125 33.832031 C 85.824219 34.378906 85.765625 34.226562 85.828125 34.039062 C 86.796875 31.050781 89.96875 29.53125 89.96875 29.53125 C 89.757812 29.324219 86.839844 30.394531 85.425781 32.242188 C 85.214844 32.515625 85.382812 32.609375 83.859375 31.136719 C 80.695312 28.074219 84.804688 33.253906 85.328125 33.832031 Z M 85.328125 33.832031 " fill-opacity="1" fill-rule="nonzero"/></g><g transform="matrix(1, 0, 0, 1, 26, 83)"><g clip-path="url(#0ce7a98c44)"><g fill="#4f622a" fill-opacity="1"><g transform="translate(0.910257, 16.181848)"><g><path d="M 5.703125 0.171875 L 5.375 0.0625 L 4.4375 -0.09375 L 4.15625 -0.1875 L 3.03125 -0.84375 L 2.484375 -1.21875 L 1.828125 -1.90625 L 1.453125 -2.46875 L 1.15625 -3.03125 L 0.6875 -4.5625 L 0.609375 -5.71875 L 0.625 -6.25 L 0.921875 -7.875 L 1.53125 -9.109375 L 1.703125 -9.359375 L 1.953125 -9.59375 L 2.171875 -9.859375 L 2.890625 -10.5 L 3.796875 -11.0625 L 5.0625 -11.515625 L 5.375 -11.546875 L 5.65625 -11.640625 L 5.984375 -11.65625 L 7.515625 -11.59375 L 8.28125 -11.375 L 8.625 -11.3125 L 9.78125 -10.703125 L 10.03125 -10.5 L 10.296875 -10.25 L 10.65625 -9.96875 L 11.3125 -9 L 11.453125 -8.71875 L 11.6875 -8.03125 L 11.59375 -7.765625 L 11.171875 -7.578125 L 10.390625 -7.625 L 9.890625 -7.5625 L 9.390625 -7.578125 L 8.984375 -7.6875 L 8.640625 -7.96875 L 8.4375 -8.25 L 8.234375 -8.46875 L 7.921875 -8.671875 L 7.609375 -8.8125 L 7 -8.96875 L 6 -8.9375 L 5.71875 -8.8125 L 5.40625 -8.78125 L 5.125 -8.625 L 4.546875 -8.21875 L 4.046875 -7.453125 L 3.78125 -6.859375 L 3.671875 -6.21875 L 3.6875 -5.265625 L 3.765625 -4.734375 L 3.890625 -4.25 L 4.203125 -3.671875 L 4.390625 -3.4375 L 4.875 -2.96875 L 5.765625 -2.609375 L 6.609375 -2.515625 L 7.03125 -2.53125 L 7.671875 -2.671875 L 8.21875 -2.890625 L 8.453125 -3.078125 L 8.703125 -3.359375 L 8.859375 -3.625 L 8.8125 -3.90625 L 8.5625 -4.03125 L 8.265625 -4.078125 L 7.453125 -4.015625 L 6.96875 -4.046875 L 6.671875 -4.21875 L 6.53125 -4.484375 L 6.53125 -6.046875 L 6.671875 -6.359375 L 7 -6.53125 L 7.625 -6.578125 L 8.609375 -6.515625 L 10.828125 -6.5625 L 11.171875 -6.515625 L 11.515625 -6.5 L 11.828125 -6.328125 L 12 -6.046875 L 12.03125 -5.421875 L 12 -5.109375 L 12 -4.78125 L 11.9375 -4.484375 L 11.921875 -4.203125 L 11.78125 -3.578125 L 11.453125 -2.609375 L 11.265625 -2.390625 L 11.109375 -2.09375 L 10.953125 -1.8125 L 10.75 -1.578125 L 10.5 -1.375 L 10.25 -1.125 L 9.75 -0.71875 L 8.578125 -0.125 L 7.34375 0.171875 Z M 5.703125 0.171875 "/></g></g></g><g fill="#4f622a" fill-opacity="1"><g transform="translate(13.497636, 16.181848)"><g><path d="M 5.71875 0.046875 L 5.390625 0.015625 L 5.0625 0.046875 L 4.6875 0.03125 L 4.375 -0.03125 L 3.703125 0.015625 L 3.40625 0 L 3.046875 0.03125 L 1.859375 0.015625 L 1.359375 -0.203125 L 1.234375 -0.640625 L 1.203125 -1 L 1.25 -2.140625 L 1.203125 -2.46875 L 1.234375 -2.78125 L 1.25 -5.4375 L 1.203125 -5.734375 L 1.21875 -7.078125 L 1.25 -7.390625 L 1.203125 -7.734375 L 1.234375 -9.359375 L 1.1875 -9.71875 L 1.234375 -10.390625 L 1.203125 -11.015625 L 1.375 -11.359375 L 1.71875 -11.484375 L 2.0625 -11.46875 L 2.390625 -11.5 L 2.671875 -11.46875 L 2.984375 -11.546875 L 3.328125 -11.484375 L 4.671875 -11.515625 L 5 -11.484375 L 5.28125 -11.5 L 5.609375 -11.46875 L 5.96875 -11.5 L 7.296875 -11.515625 L 7.59375 -11.453125 L 7.9375 -11.453125 L 8.265625 -11.328125 L 8.421875 -11.015625 L 8.453125 -10.03125 L 8.4375 -9.703125 L 8.453125 -9.375 L 8.28125 -9.078125 L 7.9375 -8.875 L 7.625 -8.859375 L 5.28125 -8.890625 L 4.96875 -8.828125 L 4.65625 -8.84375 L 4.296875 -8.71875 L 4.140625 -8.40625 L 4.140625 -7.890625 L 4.28125 -7.375 L 4.625 -7.234375 L 5.578125 -7.265625 L 6.265625 -7.21875 L 6.609375 -7.25 L 7.578125 -7.25 L 7.953125 -7.03125 L 8.125 -6.578125 L 8.078125 -5.09375 L 7.953125 -4.765625 L 7.625 -4.640625 L 7.25 -4.65625 L 6.921875 -4.625 L 6.25 -4.640625 L 5.625 -4.609375 L 5.09375 -4.65625 L 4.609375 -4.640625 L 4.3125 -4.453125 L 4.15625 -4.109375 L 4.15625 -3.078125 L 4.296875 -2.78125 L 4.640625 -2.609375 L 5 -2.640625 L 5.3125 -2.59375 L 5.671875 -2.609375 L 6 -2.578125 L 6.546875 -2.640625 L 7.375 -2.625 L 7.6875 -2.578125 L 8.078125 -2.609375 L 8.421875 -2.46875 L 8.59375 -2.140625 L 8.59375 -0.484375 L 8.421875 -0.125 L 8.078125 0.015625 Z M 5.71875 0.046875 "/></g></g></g><g fill="#4f622a" fill-opacity="1"><g transform="translate(22.913521, 16.181848)"><g><path d="M 4.296875 0.03125 L 3.78125 0.015625 L 3.296875 -0.140625 L 3.09375 -0.515625 L 3.125 -0.828125 L 3.140625 -1.78125 L 3.109375 -2.125 L 3.125 -3.453125 L 3.15625 -3.78125 L 3.109375 -6.234375 L 3.140625 -6.6875 L 3.125 -7.015625 L 3.140625 -7.375 L 3.109375 -7.84375 L 3.140625 -8.359375 L 2.953125 -8.703125 L 2.640625 -8.859375 L 1.078125 -8.890625 L 0.75 -8.859375 L 0.453125 -9.03125 L 0.3125 -9.3125 L 0.28125 -9.828125 L 0.3125 -10.65625 L 0.296875 -10.984375 L 0.5 -11.359375 L 0.8125 -11.515625 L 1.953125 -11.453125 L 2.46875 -11.5 L 3.4375 -11.453125 L 3.734375 -11.515625 L 4.09375 -11.484375 L 4.4375 -11.546875 L 4.75 -11.515625 L 5.078125 -11.453125 L 6.40625 -11.515625 L 6.71875 -11.484375 L 7.0625 -11.546875 L 7.375 -11.5 L 8.40625 -11.5 L 8.71875 -11.296875 L 8.890625 -10.96875 L 8.875 -9.40625 L 8.671875 -9.046875 L 8.40625 -8.859375 L 8.109375 -8.875 L 7.765625 -8.828125 L 7.15625 -8.90625 L 6.515625 -8.875 L 6.203125 -8.671875 L 6.0625 -8.1875 L 6.015625 -6.75 L 6.0625 -6.40625 L 6.03125 -3.765625 L 6.078125 -3.40625 L 6.046875 -3.109375 L 6.0625 -2.453125 L 6.03125 -2.109375 L 6.078125 -1.484375 L 6.03125 -0.625 L 5.875 -0.171875 L 5.390625 0 Z M 4.296875 0.03125 "/></g></g></g><g fill="#4f622a" fill-opacity="1"><g transform="translate(32.099351, 16.181848)"><g><path d="M 9.703125 0.03125 L 9.359375 0 L 8.96875 -0.171875 L 8.640625 -0.40625 L 8.546875 -0.703125 L 8.40625 -1.015625 L 8.09375 -1.28125 L 7.71875 -1.46875 L 7.359375 -1.40625 L 7.0625 -1.453125 L 5.453125 -1.4375 L 5.15625 -1.484375 L 4.46875 -1.40625 L 4.15625 -1.46875 L 3.8125 -1.28125 L 3.5 -0.96875 L 3.203125 -0.421875 L 2.890625 -0.125 L 2.515625 -0.015625 L 1.59375 0.015625 L 1.265625 -0.015625 L 0.625 0.015625 L 0.296875 -0.078125 L 0.21875 -0.5 L 0.3125 -0.828125 L 0.640625 -1.484375 L 0.71875 -1.78125 L 0.90625 -2 L 1.15625 -2.65625 L 1.453125 -3.1875 L 1.5625 -3.515625 L 1.71875 -3.765625 L 1.828125 -4.125 L 3.5 -7.640625 L 3.59375 -7.9375 L 3.78125 -8.25 L 3.859375 -8.578125 L 4.046875 -8.828125 L 4.703125 -10.34375 L 4.84375 -10.5625 L 4.96875 -10.890625 L 5.109375 -11.171875 L 5.40625 -11.453125 L 5.9375 -11.640625 L 6.46875 -11.46875 L 6.75 -11.171875 L 7.0625 -10.609375 L 7.171875 -10.3125 L 7.34375 -10.015625 L 7.453125 -9.6875 L 8.53125 -7.390625 L 8.640625 -7.046875 L 8.984375 -6.4375 L 9.09375 -6.1875 L 9.234375 -5.9375 L 9.34375 -5.578125 L 9.5 -5.265625 L 9.671875 -5.015625 L 10.296875 -3.515625 L 10.625 -2.921875 L 10.84375 -2.3125 L 11.296875 -1.46875 L 11.546875 -0.859375 L 11.65625 -0.484375 L 11.609375 -0.078125 L 11.140625 0 L 10.640625 0.015625 L 10.328125 -0.015625 Z M 5.96875 -4.0625 L 6.625 -4.078125 L 6.875 -4.203125 L 6.9375 -4.5 L 6.171875 -6.3125 L 5.9375 -6.4375 L 5.75 -6.296875 L 4.984375 -4.515625 L 5 -4.203125 L 5.265625 -4.09375 L 5.640625 -4.125 Z M 5.96875 -4.0625 "/></g></g></g><g fill="#4f622a" fill-opacity="1"><g transform="translate(44.029422, 16.181848)"><g><path d="M 4.03125 -0.359375 L 3.921875 -0.640625 L 3.78125 -0.953125 L 2.453125 -4.6875 L 2.296875 -4.953125 L 1.84375 -6.1875 L 1.75 -6.546875 L 1.0625 -8.390625 L 0.921875 -8.65625 L 0.234375 -10.53125 L 0.140625 -10.984375 L 0.21875 -11.359375 L 0.5625 -11.453125 L 0.90625 -11.46875 L 1.203125 -11.515625 L 1.5 -11.453125 L 2.8125 -11.4375 L 3.125 -11.296875 L 3.421875 -11.03125 L 3.546875 -10.703125 L 3.609375 -10.375 L 3.8125 -9.734375 L 3.9375 -9.453125 L 5 -5.875 L 5.0625 -5.46875 L 5.1875 -5.484375 L 5.4375 -6.109375 L 5.5 -6.453125 L 5.671875 -6.703125 L 6.265625 -8.609375 L 6.515625 -9.203125 L 7.046875 -10.828125 L 7.328125 -11.15625 L 7.65625 -11.328125 L 8.015625 -11.328125 L 8.359375 -11.125 L 8.59375 -10.796875 L 8.734375 -10.5 L 8.859375 -10.21875 L 9.0625 -9.5625 L 9.1875 -9.25 L 9.359375 -8.625 L 10.0625 -6.765625 L 10.140625 -6.4375 L 10.46875 -5.5 L 10.640625 -5.484375 L 10.734375 -5.796875 L 10.84375 -6.5 L 11.0625 -7.1875 L 11.125 -7.515625 L 12.03125 -10.40625 L 12.1875 -10.6875 L 12.265625 -11 L 12.546875 -11.34375 L 12.890625 -11.5 L 13.203125 -11.453125 L 13.546875 -11.484375 L 14.203125 -11.453125 L 14.78125 -11.484375 L 15.109375 -11.4375 L 15.4375 -11.359375 L 15.53125 -10.96875 L 15.21875 -9.96875 L 15.0625 -9.671875 L 14.96875 -9.296875 L 13.921875 -6.515625 L 13.859375 -6.234375 L 13.703125 -5.9375 L 13.578125 -5.46875 L 13.03125 -4.078125 L 12.890625 -3.796875 L 11.90625 -0.9375 L 11.75 -0.640625 L 11.65625 -0.328125 L 11.40625 -0.03125 L 11.015625 0.09375 L 10.734375 0.140625 L 10.421875 0.171875 L 10.046875 -0.03125 L 9.734375 -0.375 L 9.625 -0.6875 L 9.390625 -1.234375 L 8.453125 -3.765625 L 8.171875 -4.328125 L 8.078125 -4.671875 L 7.90625 -4.953125 L 7.734375 -5 L 7.53125 -4.359375 L 7.234375 -3.734375 L 7.140625 -3.390625 L 6.625 -2.171875 L 6.546875 -1.90625 L 6.390625 -1.5625 L 6.3125 -1.28125 L 6.140625 -0.984375 L 6.046875 -0.625 L 5.90625 -0.34375 L 5.640625 0 L 5.28125 0.125 L 4.65625 0.140625 L 4.296875 -0.0625 Z M 4.03125 -0.359375 "/></g></g></g><g fill="#4f622a" fill-opacity="1"><g transform="translate(59.706133, 16.181848)"><g><path d="M 9.703125 0.03125 L 9.359375 0 L 8.96875 -0.171875 L 8.640625 -0.40625 L 8.546875 -0.703125 L 8.40625 -1.015625 L 8.09375 -1.28125 L 7.71875 -1.46875 L 7.359375 -1.40625 L 7.0625 -1.453125 L 5.453125 -1.4375 L 5.15625 -1.484375 L 4.46875 -1.40625 L 4.15625 -1.46875 L 3.8125 -1.28125 L 3.5 -0.96875 L 3.203125 -0.421875 L 2.890625 -0.125 L 2.515625 -0.015625 L 1.59375 0.015625 L 1.265625 -0.015625 L 0.625 0.015625 L 0.296875 -0.078125 L 0.21875 -0.5 L 0.3125 -0.828125 L 0.640625 -1.484375 L 0.71875 -1.78125 L 0.90625 -2 L 1.15625 -2.65625 L 1.453125 -3.1875 L 1.5625 -3.515625 L 1.71875 -3.765625 L 1.828125 -4.125 L 3.5 -7.640625 L 3.59375 -7.9375 L 3.78125 -8.25 L 3.859375 -8.578125 L 4.046875 -8.828125 L 4.703125 -10.34375 L 4.84375 -10.5625 L 4.96875 -10.890625 L 5.109375 -11.171875 L 5.40625 -11.453125 L 5.9375 -11.640625 L 6.46875 -11.46875 L 6.75 -11.171875 L 7.0625 -10.609375 L 7.171875 -10.3125 L 7.34375 -10.015625 L 7.453125 -9.6875 L 8.53125 -7.390625 L 8.640625 -7.046875 L 8.984375 -6.4375 L 9.09375 -6.1875 L 9.234375 -5.9375 L 9.34375 -5.578125 L 9.5 -5.265625 L 9.671875 -5.015625 L 10.296875 -3.515625 L 10.625 -2.921875 L 10.84375 -2.3125 L 11.296875 -1.46875 L 11.546875 -0.859375 L 11.65625 -0.484375 L 11.609375 -0.078125 L 11.140625 0 L 10.640625 0.015625 L 10.328125 -0.015625 Z M 5.96875 -4.0625 L 6.625 -4.078125 L 6.875 -4.203125 L 6.9375 -4.5 L 6.171875 -6.3125 L 5.9375 -6.4375 L 5.75 -6.296875 L 4.984375 -4.515625 L 5 -4.203125 L 5.265625 -4.09375 L 5.640625 -4.125 Z M 5.96875 -4.0625 "/></g></g></g><g clip-path="url(#8a45bf54fe)"><g fill="#4f622a" fill-opacity="1"><g transform="translate(71.63621, 16.181848)"><g><path d="M 3.765625 -0.5 L 3.78125 -1.125 L 3.75 -1.4375 L 3.78125 -2.703125 L 3.75 -3.03125 L 3.765625 -4.328125 L 3.6875 -4.765625 L 3.515625 -5.234375 L 2.25 -7.234375 L 2.125 -7.53125 L 1.71875 -8.046875 L 1.046875 -9.21875 L 0.875 -9.453125 L 0.171875 -10.625 L 0 -11 L 0.046875 -11.359375 L 0.375 -11.515625 L 1.140625 -11.46875 L 1.96875 -11.546875 L 2.25 -11.46875 L 2.59375 -11.484375 L 2.96875 -11.34375 L 3.328125 -11.03125 L 4.09375 -9.578125 L 4.28125 -9.296875 L 4.765625 -8.390625 L 4.953125 -8.125 L 5.125 -7.8125 L 5.3125 -7.8125 L 5.515625 -8.09375 L 5.796875 -8.71875 L 5.96875 -8.984375 L 6.125 -9.34375 L 6.5 -9.859375 L 6.6875 -10.359375 L 7.125 -11.0625 L 7.40625 -11.34375 L 7.859375 -11.5 L 8.140625 -11.484375 L 8.78125 -11.5 L 9.109375 -11.453125 L 9.453125 -11.484375 L 10.09375 -11.46875 L 10.390625 -11.40625 L 10.453125 -11.046875 L 10.28125 -10.640625 L 9.21875 -8.890625 L 9.03125 -8.65625 L 6.9375 -5.234375 L 6.765625 -4.796875 L 6.671875 -4.328125 L 6.6875 -3.375 L 6.640625 -3.078125 L 6.640625 -2.75 L 6.671875 -2.421875 L 6.625 -0.515625 L 6.5 -0.171875 L 6.171875 0.015625 L 5.828125 -0.015625 L 5.375 0.015625 L 4.859375 -0.015625 L 4.5625 0.015625 L 4.234375 0 L 3.890625 -0.125 Z M 3.765625 -0.5 "/></g></g></g></g></g></g><g transform="matrix(1, 0, 0, 1, 25, 102)"><g clip-path="url(#1d11bea4e6)"><g clip-path="url(#ad076aceb9)"><g fill="#2c2d0c" fill-opacity="1"><g transform="translate(0.46206, 7.16537)"><g><path d="M 2.65625 0.109375 C 2.1875 0.109375 1.769531 0 1.40625 -0.21875 C 1.039062 -0.4375 0.753906 -0.738281 0.546875 -1.125 C 0.347656 -1.507812 0.25 -1.929688 0.25 -2.390625 C 0.25 -2.835938 0.34375 -3.265625 0.53125 -3.671875 C 0.71875 -4.078125 1 -4.40625 1.375 -4.65625 C 1.75 -4.914062 2.195312 -5.046875 2.71875 -5.046875 C 2.90625 -5.046875 3.109375 -5.015625 3.328125 -4.953125 C 3.546875 -4.890625 3.742188 -4.804688 3.921875 -4.703125 L 3.9375 -4.703125 L 3.90625 -5 L 4.453125 -5 L 4.453125 -3.359375 L 3.984375 -3.359375 C 3.859375 -4.140625 3.460938 -4.53125 2.796875 -4.53125 C 2.484375 -4.53125 2.21875 -4.4375 2 -4.25 C 1.78125 -4.070312 1.617188 -3.828125 1.515625 -3.515625 C 1.410156 -3.210938 1.359375 -2.882812 1.359375 -2.53125 C 1.359375 -2.132812 1.414062 -1.773438 1.53125 -1.453125 C 1.644531 -1.140625 1.8125 -0.894531 2.03125 -0.71875 C 2.257812 -0.539062 2.523438 -0.453125 2.828125 -0.453125 C 3.128906 -0.453125 3.425781 -0.53125 3.71875 -0.6875 C 4.007812 -0.84375 4.253906 -1.054688 4.453125 -1.328125 L 4.78125 -1.015625 C 4.46875 -0.585938 4.125 -0.289062 3.75 -0.125 C 3.382812 0.03125 3.019531 0.109375 2.65625 0.109375 Z M 2.65625 0.109375 "/></g></g></g></g><g fill="#2c2d0c" fill-opacity="1"><g transform="translate(5.346219, 7.16537)"><g><path d="M 1.171875 0.109375 C 0.867188 0.109375 0.632812 0.0195312 0.46875 -0.15625 C 0.300781 -0.332031 0.21875 -0.554688 0.21875 -0.828125 C 0.21875 -1.234375 0.40625 -1.539062 0.78125 -1.75 C 1.164062 -1.96875 1.628906 -2.09375 2.171875 -2.125 L 2.171875 -2.484375 C 2.171875 -2.910156 2.015625 -3.125 1.703125 -3.125 C 1.492188 -3.125 1.320312 -3.0625 1.1875 -2.9375 C 1.25 -2.863281 1.28125 -2.769531 1.28125 -2.65625 C 1.28125 -2.550781 1.238281 -2.453125 1.15625 -2.359375 C 1.082031 -2.273438 0.96875 -2.234375 0.8125 -2.234375 C 0.675781 -2.234375 0.566406 -2.273438 0.484375 -2.359375 C 0.398438 -2.453125 0.359375 -2.566406 0.359375 -2.703125 C 0.359375 -2.890625 0.425781 -3.050781 0.5625 -3.1875 C 0.695312 -3.332031 0.875 -3.441406 1.09375 -3.515625 C 1.320312 -3.597656 1.578125 -3.640625 1.859375 -3.640625 C 2.722656 -3.640625 3.15625 -3.191406 3.15625 -2.296875 L 3.15625 -1.140625 C 3.15625 -0.910156 3.144531 -0.703125 3.125 -0.515625 C 3.28125 -0.523438 3.429688 -0.53125 3.578125 -0.53125 L 3.578125 0 L 2.25 0 C 2.238281 -0.0625 2.226562 -0.171875 2.21875 -0.328125 C 1.925781 -0.0351562 1.578125 0.109375 1.171875 0.109375 Z M 1.609375 -0.578125 C 1.828125 -0.578125 2.015625 -0.660156 2.171875 -0.828125 L 2.171875 -1.625 C 1.890625 -1.59375 1.660156 -1.519531 1.484375 -1.40625 C 1.304688 -1.289062 1.21875 -1.140625 1.21875 -0.953125 C 1.21875 -0.828125 1.253906 -0.734375 1.328125 -0.671875 C 1.398438 -0.609375 1.492188 -0.578125 1.609375 -0.578125 Z M 1.609375 -0.578125 "/></g></g></g><g fill="#2c2d0c" fill-opacity="1"><g transform="translate(9.074528, 7.16537)"><g><path d="M 0.28125 -0.453125 C 0.46875 -0.453125 0.582031 -0.5 0.625 -0.59375 C 0.675781 -0.695312 0.703125 -0.859375 0.703125 -1.078125 L 0.703125 -2.265625 C 0.703125 -2.484375 0.710938 -2.6875 0.734375 -2.875 L 0.234375 -2.84375 L 0.234375 -3.375 C 0.535156 -3.375 0.773438 -3.394531 0.953125 -3.4375 C 1.140625 -3.488281 1.265625 -3.539062 1.328125 -3.59375 L 1.671875 -3.59375 C 1.671875 -3.582031 1.679688 -3.460938 1.703125 -3.234375 L 1.71875 -3.234375 C 1.851562 -3.347656 2.019531 -3.441406 2.21875 -3.515625 C 2.414062 -3.597656 2.585938 -3.640625 2.734375 -3.640625 C 3.160156 -3.640625 3.460938 -3.515625 3.640625 -3.265625 C 3.828125 -3.023438 3.921875 -2.628906 3.921875 -2.078125 L 3.921875 -1.140625 C 3.921875 -0.910156 3.910156 -0.703125 3.890625 -0.515625 C 4.046875 -0.523438 4.195312 -0.53125 4.34375 -0.53125 L 4.34375 0 L 2.5 0 L 2.5 -0.453125 C 2.675781 -0.453125 2.789062 -0.5 2.84375 -0.59375 C 2.894531 -0.695312 2.921875 -0.859375 2.921875 -1.078125 L 2.921875 -2.078125 C 2.921875 -2.390625 2.875 -2.617188 2.78125 -2.765625 C 2.695312 -2.910156 2.550781 -2.984375 2.34375 -2.984375 C 2.226562 -2.984375 2.113281 -2.957031 2 -2.90625 C 1.882812 -2.863281 1.785156 -2.804688 1.703125 -2.734375 L 1.703125 -1.140625 C 1.703125 -0.910156 1.691406 -0.703125 1.671875 -0.515625 C 1.828125 -0.523438 1.984375 -0.53125 2.140625 -0.53125 L 2.140625 0 L 0.28125 0 Z M 0.28125 -0.453125 "/></g></g></g><g fill="#2c2d0c" fill-opacity="1"><g transform="translate(13.592197, 7.16537)"><g><path d="M 2.015625 0.109375 C 1.671875 0.109375 1.363281 0.0351562 1.09375 -0.109375 C 0.820312 -0.253906 0.609375 -0.460938 0.453125 -0.734375 C 0.296875 -1.003906 0.21875 -1.320312 0.21875 -1.6875 C 0.21875 -2.0625 0.296875 -2.394531 0.453125 -2.6875 C 0.617188 -2.988281 0.835938 -3.222656 1.109375 -3.390625 C 1.378906 -3.554688 1.675781 -3.640625 2 -3.640625 C 2.332031 -3.640625 2.632812 -3.566406 2.90625 -3.421875 C 3.175781 -3.273438 3.382812 -3.0625 3.53125 -2.78125 C 3.6875 -2.507812 3.765625 -2.191406 3.765625 -1.828125 C 3.765625 -1.429688 3.691406 -1.085938 3.546875 -0.796875 C 3.398438 -0.503906 3.191406 -0.28125 2.921875 -0.125 C 2.660156 0.03125 2.359375 0.109375 2.015625 0.109375 Z M 2.03125 -0.390625 C 2.289062 -0.390625 2.472656 -0.507812 2.578125 -0.75 C 2.679688 -0.988281 2.734375 -1.289062 2.734375 -1.65625 C 2.734375 -2.050781 2.671875 -2.394531 2.546875 -2.6875 C 2.429688 -2.988281 2.25 -3.140625 2 -3.140625 C 1.738281 -3.140625 1.546875 -3.015625 1.421875 -2.765625 C 1.304688 -2.523438 1.25 -2.226562 1.25 -1.875 C 1.25 -1.46875 1.3125 -1.117188 1.4375 -0.828125 C 1.570312 -0.535156 1.769531 -0.390625 2.03125 -0.390625 Z M 2.03125 -0.390625 "/></g></g></g><g fill="#2c2d0c" fill-opacity="1"><g transform="translate(17.616521, 7.16537)"><g><path d="M 1.953125 0.109375 C 1.609375 0.109375 1.304688 0.0351562 1.046875 -0.109375 C 0.785156 -0.265625 0.582031 -0.484375 0.4375 -0.765625 C 0.289062 -1.046875 0.21875 -1.375 0.21875 -1.75 C 0.21875 -2.082031 0.289062 -2.390625 0.4375 -2.671875 C 0.582031 -2.960938 0.789062 -3.195312 1.0625 -3.375 C 1.332031 -3.550781 1.640625 -3.640625 1.984375 -3.640625 C 2.429688 -3.640625 2.804688 -3.503906 3.109375 -3.234375 C 3.421875 -2.960938 3.570312 -2.515625 3.5625 -1.890625 L 1.25 -1.859375 C 1.25 -1.441406 1.328125 -1.113281 1.484375 -0.875 C 1.640625 -0.632812 1.894531 -0.515625 2.25 -0.515625 C 2.414062 -0.515625 2.59375 -0.554688 2.78125 -0.640625 C 2.96875 -0.722656 3.132812 -0.859375 3.28125 -1.046875 L 3.59375 -0.75 C 3.195312 -0.175781 2.648438 0.109375 1.953125 0.109375 Z M 2.59375 -2.34375 C 2.582031 -2.875 2.390625 -3.140625 2.015625 -3.140625 C 1.816406 -3.140625 1.65625 -3.066406 1.53125 -2.921875 C 1.414062 -2.785156 1.335938 -2.59375 1.296875 -2.34375 Z M 2.59375 -2.34375 "/></g></g></g><g fill="#2c2d0c" fill-opacity="1"><g transform="translate(21.443499, 7.16537)"><g/></g></g><g fill="#2c2d0c" fill-opacity="1"><g transform="translate(23.332321, 7.16537)"><g><path d="M 1.171875 0.109375 C 0.867188 0.109375 0.632812 0.0195312 0.46875 -0.15625 C 0.300781 -0.332031 0.21875 -0.554688 0.21875 -0.828125 C 0.21875 -1.234375 0.40625 -1.539062 0.78125 -1.75 C 1.164062 -1.96875 1.628906 -2.09375 2.171875 -2.125 L 2.171875 -2.484375 C 2.171875 -2.910156 2.015625 -3.125 1.703125 -3.125 C 1.492188 -3.125 1.320312 -3.0625 1.1875 -2.9375 C 1.25 -2.863281 1.28125 -2.769531 1.28125 -2.65625 C 1.28125 -2.550781 1.238281 -2.453125 1.15625 -2.359375 C 1.082031 -2.273438 0.96875 -2.234375 0.8125 -2.234375 C 0.675781 -2.234375 0.566406 -2.273438 0.484375 -2.359375 C 0.398438 -2.453125 0.359375 -2.566406 0.359375 -2.703125 C 0.359375 -2.890625 0.425781 -3.050781 0.5625 -3.1875 C 0.695312 -3.332031 0.875 -3.441406 1.09375 -3.515625 C 1.320312 -3.597656 1.578125 -3.640625 1.859375 -3.640625 C 2.722656 -3.640625 3.15625 -3.191406 3.15625 -2.296875 L 3.15625 -1.140625 C 3.15625 -0.910156 3.144531 -0.703125 3.125 -0.515625 C 3.28125 -0.523438 3.429688 -0.53125 3.578125 -0.53125 L 3.578125 0 L 2.25 0 C 2.238281 -0.0625 2.226562 -0.171875 2.21875 -0.328125 C 1.925781 -0.0351562 1.578125 0.109375 1.171875 0.109375 Z M 1.609375 -0.578125 C 1.828125 -0.578125 2.015625 -0.660156 2.171875 -0.828125 L 2.171875 -1.625 C 1.890625 -1.59375 1.660156 -1.519531 1.484375 -1.40625 C 1.304688 -1.289062 1.21875 -1.140625 1.21875 -0.953125 C 1.21875 -0.828125 1.253906 -0.734375 1.328125 -0.671875 C 1.398438 -0.609375 1.492188 -0.578125 1.609375 -0.578125 Z M 1.609375 -0.578125 "/></g></g></g><g fill="#2c2d0c" fill-opacity="1"><g transform="translate(27.060631, 7.16537)"><g><path d="M 0.28125 -0.453125 C 0.46875 -0.453125 0.582031 -0.5 0.625 -0.59375 C 0.675781 -0.695312 0.703125 -0.859375 0.703125 -1.078125 L 0.703125 -2.265625 C 0.703125 -2.484375 0.710938 -2.6875 0.734375 -2.875 L 0.234375 -2.84375 L 0.234375 -3.375 C 0.535156 -3.375 0.773438 -3.394531 0.953125 -3.4375 C 1.140625 -3.488281 1.265625 -3.539062 1.328125 -3.59375 L 1.671875 -3.59375 C 1.671875 -3.582031 1.679688 -3.460938 1.703125 -3.234375 L 1.71875 -3.234375 C 1.851562 -3.347656 2.019531 -3.441406 2.21875 -3.515625 C 2.414062 -3.597656 2.585938 -3.640625 2.734375 -3.640625 C 3.160156 -3.640625 3.460938 -3.515625 3.640625 -3.265625 C 3.828125 -3.023438 3.921875 -2.628906 3.921875 -2.078125 L 3.921875 -1.140625 C 3.921875 -0.910156 3.910156 -0.703125 3.890625 -0.515625 C 4.046875 -0.523438 4.195312 -0.53125 4.34375 -0.53125 L 4.34375 0 L 2.5 0 L 2.5 -0.453125 C 2.675781 -0.453125 2.789062 -0.5 2.84375 -0.59375 C 2.894531 -0.695312 2.921875 -0.859375 2.921875 -1.078125 L 2.921875 -2.078125 C 2.921875 -2.390625 2.875 -2.617188 2.78125 -2.765625 C 2.695312 -2.910156 2.550781 -2.984375 2.34375 -2.984375 C 2.226562 -2.984375 2.113281 -2.957031 2 -2.90625 C 1.882812 -2.863281 1.785156 -2.804688 1.703125 -2.734375 L 1.703125 -1.140625 C 1.703125 -0.910156 1.691406 -0.703125 1.671875 -0.515625 C 1.828125 -0.523438 1.984375 -0.53125 2.140625 -0.53125 L 2.140625 0 L 0.28125 0 Z M 0.28125 -0.453125 "/></g></g></g><g fill="#2c2d0c" fill-opacity="1"><g transform="translate(31.578299, 7.16537)"><g><path d="M 1.65625 0.109375 C 1.363281 0.109375 1.109375 0.0351562 0.890625 -0.109375 C 0.679688 -0.253906 0.515625 -0.460938 0.390625 -0.734375 C 0.273438 -1.003906 0.21875 -1.316406 0.21875 -1.671875 C 0.21875 -2.046875 0.289062 -2.378906 0.4375 -2.671875 C 0.582031 -2.972656 0.785156 -3.207031 1.046875 -3.375 C 1.316406 -3.550781 1.625 -3.640625 1.96875 -3.640625 C 2.15625 -3.640625 2.363281 -3.597656 2.59375 -3.515625 L 2.59375 -3.96875 C 2.59375 -4.195312 2.601562 -4.40625 2.625 -4.59375 C 2.46875 -4.582031 2.300781 -4.578125 2.125 -4.578125 L 2.125 -5.109375 C 2.425781 -5.109375 2.664062 -5.128906 2.84375 -5.171875 C 3.03125 -5.210938 3.15625 -5.265625 3.21875 -5.328125 L 3.59375 -5.328125 L 3.59375 -1.140625 C 3.59375 -0.910156 3.582031 -0.703125 3.5625 -0.515625 C 3.71875 -0.523438 3.875 -0.53125 4.03125 -0.53125 L 4.03125 0 L 2.6875 0 L 2.65625 -0.328125 L 2.640625 -0.328125 C 2.367188 -0.0351562 2.039062 0.109375 1.65625 0.109375 Z M 2.015625 -0.53125 C 2.128906 -0.53125 2.238281 -0.5625 2.34375 -0.625 C 2.445312 -0.6875 2.53125 -0.765625 2.59375 -0.859375 L 2.59375 -2.984375 C 2.539062 -3.015625 2.46875 -3.039062 2.375 -3.0625 C 2.28125 -3.09375 2.1875 -3.109375 2.09375 -3.109375 C 1.800781 -3.109375 1.585938 -2.976562 1.453125 -2.71875 C 1.328125 -2.46875 1.265625 -2.15625 1.265625 -1.78125 C 1.265625 -1.4375 1.328125 -1.140625 1.453125 -0.890625 C 1.578125 -0.648438 1.765625 -0.53125 2.015625 -0.53125 Z M 2.015625 -0.53125 "/></g></g></g><g fill="#2c2d0c" fill-opacity="1"><g transform="translate(35.814058, 7.16537)"><g/></g></g><g fill="#2c2d0c" fill-opacity="1"><g transform="translate(37.70288, 7.16537)"><g><path d="M 2.65625 0.109375 C 2.1875 0.109375 1.769531 0 1.40625 -0.21875 C 1.039062 -0.4375 0.753906 -0.738281 0.546875 -1.125 C 0.347656 -1.507812 0.25 -1.929688 0.25 -2.390625 C 0.25 -2.835938 0.34375 -3.265625 0.53125 -3.671875 C 0.71875 -4.078125 1 -4.40625 1.375 -4.65625 C 1.75 -4.914062 2.195312 -5.046875 2.71875 -5.046875 C 2.90625 -5.046875 3.109375 -5.015625 3.328125 -4.953125 C 3.546875 -4.890625 3.742188 -4.804688 3.921875 -4.703125 L 3.9375 -4.703125 L 3.90625 -5 L 4.453125 -5 L 4.453125 -3.359375 L 3.984375 -3.359375 C 3.859375 -4.140625 3.460938 -4.53125 2.796875 -4.53125 C 2.484375 -4.53125 2.21875 -4.4375 2 -4.25 C 1.78125 -4.070312 1.617188 -3.828125 1.515625 -3.515625 C 1.410156 -3.210938 1.359375 -2.882812 1.359375 -2.53125 C 1.359375 -2.132812 1.414062 -1.773438 1.53125 -1.453125 C 1.644531 -1.140625 1.8125 -0.894531 2.03125 -0.71875 C 2.257812 -0.539062 2.523438 -0.453125 2.828125 -0.453125 C 3.128906 -0.453125 3.425781 -0.53125 3.71875 -0.6875 C 4.007812 -0.84375 4.253906 -1.054688 4.453125 -1.328125 L 4.78125 -1.015625 C 4.46875 -0.585938 4.125 -0.289062 3.75 -0.125 C 3.382812 0.03125 3.019531 0.109375 2.65625 0.109375 Z M 2.65625 0.109375 "/></g></g></g><g fill="#2c2d0c" fill-opacity="1"><g transform="translate(42.587039, 7.16537)"><g><path d="M 1.171875 0.109375 C 0.867188 0.109375 0.632812 0.0195312 0.46875 -0.15625 C 0.300781 -0.332031 0.21875 -0.554688 0.21875 -0.828125 C 0.21875 -1.234375 0.40625 -1.539062 0.78125 -1.75 C 1.164062 -1.96875 1.628906 -2.09375 2.171875 -2.125 L 2.171875 -2.484375 C 2.171875 -2.910156 2.015625 -3.125 1.703125 -3.125 C 1.492188 -3.125 1.320312 -3.0625 1.1875 -2.9375 C 1.25 -2.863281 1.28125 -2.769531 1.28125 -2.65625 C 1.28125 -2.550781 1.238281 -2.453125 1.15625 -2.359375 C 1.082031 -2.273438 0.96875 -2.234375 0.8125 -2.234375 C 0.675781 -2.234375 0.566406 -2.273438 0.484375 -2.359375 C 0.398438 -2.453125 0.359375 -2.566406 0.359375 -2.703125 C 0.359375 -2.890625 0.425781 -3.050781 0.5625 -3.1875 C 0.695312 -3.332031 0.875 -3.441406 1.09375 -3.515625 C 1.320312 -3.597656 1.578125 -3.640625 1.859375 -3.640625 C 2.722656 -3.640625 3.15625 -3.191406 3.15625 -2.296875 L 3.15625 -1.140625 C 3.15625 -0.910156 3.144531 -0.703125 3.125 -0.515625 C 3.28125 -0.523438 3.429688 -0.53125 3.578125 -0.53125 L 3.578125 0 L 2.25 0 C 2.238281 -0.0625 2.226562 -0.171875 2.21875 -0.328125 C 1.925781 -0.0351562 1.578125 0.109375 1.171875 0.109375 Z M 1.609375 -0.578125 C 1.828125 -0.578125 2.015625 -0.660156 2.171875 -0.828125 L 2.171875 -1.625 C 1.890625 -1.59375 1.660156 -1.519531 1.484375 -1.40625 C 1.304688 -1.289062 1.21875 -1.140625 1.21875 -0.953125 C 1.21875 -0.828125 1.253906 -0.734375 1.328125 -0.671875 C 1.398438 -0.609375 1.492188 -0.578125 1.609375 -0.578125 Z M 1.609375 -0.578125 "/></g></g></g><g fill="#2c2d0c" fill-opacity="1"><g transform="translate(46.315348, 7.16537)"><g><path d="M 2.09375 0.109375 C 1.9375 0.109375 1.765625 0.078125 1.578125 0.015625 C 1.390625 -0.046875 1.222656 -0.15625 1.078125 -0.3125 L 0.859375 0 L 0.4375 0 L 0.4375 -3.984375 C 0.4375 -4.253906 0.445312 -4.457031 0.46875 -4.59375 L -0.03125 -4.578125 L -0.03125 -5.109375 C 0.269531 -5.109375 0.507812 -5.128906 0.6875 -5.171875 C 0.875 -5.210938 1 -5.265625 1.0625 -5.328125 L 1.4375 -5.328125 L 1.4375 -3.25 C 1.726562 -3.507812 2.046875 -3.640625 2.390625 -3.640625 C 2.671875 -3.640625 2.914062 -3.566406 3.125 -3.421875 C 3.34375 -3.273438 3.507812 -3.066406 3.625 -2.796875 C 3.75 -2.523438 3.8125 -2.210938 3.8125 -1.859375 C 3.8125 -1.472656 3.738281 -1.128906 3.59375 -0.828125 C 3.457031 -0.535156 3.257812 -0.304688 3 -0.140625 C 2.75 0.0234375 2.445312 0.109375 2.09375 0.109375 Z M 1.984375 -0.40625 C 2.265625 -0.40625 2.46875 -0.53125 2.59375 -0.78125 C 2.71875 -1.03125 2.78125 -1.351562 2.78125 -1.75 C 2.78125 -2.09375 2.71875 -2.382812 2.59375 -2.625 C 2.46875 -2.875 2.28125 -3 2.03125 -3 C 1.914062 -3 1.800781 -2.972656 1.6875 -2.921875 C 1.582031 -2.867188 1.5 -2.796875 1.4375 -2.703125 L 1.4375 -1.0625 C 1.4375 -0.832031 1.488281 -0.664062 1.59375 -0.5625 C 1.695312 -0.457031 1.828125 -0.40625 1.984375 -0.40625 Z M 1.984375 -0.40625 "/></g></g></g><g fill="#2c2d0c" fill-opacity="1"><g transform="translate(50.389007, 7.16537)"><g><path d="M 1.28125 -4.21875 C 1.125 -4.21875 0.992188 -4.269531 0.890625 -4.375 C 0.785156 -4.488281 0.734375 -4.628906 0.734375 -4.796875 C 0.734375 -4.953125 0.785156 -5.085938 0.890625 -5.203125 C 1.003906 -5.316406 1.132812 -5.375 1.28125 -5.375 C 1.425781 -5.375 1.546875 -5.316406 1.640625 -5.203125 C 1.742188 -5.085938 1.796875 -4.953125 1.796875 -4.796875 C 1.796875 -4.628906 1.75 -4.488281 1.65625 -4.375 C 1.5625 -4.269531 1.4375 -4.21875 1.28125 -4.21875 Z M 0.28125 -0.453125 C 0.46875 -0.453125 0.582031 -0.5 0.625 -0.59375 C 0.675781 -0.695312 0.703125 -0.859375 0.703125 -1.078125 L 0.703125 -2.25 C 0.703125 -2.476562 0.710938 -2.6875 0.734375 -2.875 L 0.234375 -2.84375 L 0.234375 -3.375 C 0.535156 -3.375 0.773438 -3.394531 0.953125 -3.4375 C 1.140625 -3.488281 1.265625 -3.539062 1.328125 -3.59375 L 1.703125 -3.59375 L 1.703125 -1.140625 C 1.703125 -0.910156 1.691406 -0.703125 1.671875 -0.515625 C 1.828125 -0.523438 1.984375 -0.53125 2.140625 -0.53125 L 2.140625 0 L 0.28125 0 Z M 0.28125 -0.453125 "/></g></g></g><g fill="#2c2d0c" fill-opacity="1"><g transform="translate(52.728892, 7.16537)"><g><path d="M 0.28125 -0.453125 C 0.46875 -0.453125 0.582031 -0.5 0.625 -0.59375 C 0.675781 -0.695312 0.703125 -0.859375 0.703125 -1.078125 L 0.703125 -2.265625 C 0.703125 -2.484375 0.710938 -2.6875 0.734375 -2.875 L 0.234375 -2.84375 L 0.234375 -3.375 C 0.535156 -3.375 0.773438 -3.394531 0.953125 -3.4375 C 1.140625 -3.488281 1.265625 -3.539062 1.328125 -3.59375 L 1.671875 -3.59375 C 1.671875 -3.582031 1.679688 -3.460938 1.703125 -3.234375 L 1.71875 -3.234375 C 1.851562 -3.347656 2.019531 -3.441406 2.21875 -3.515625 C 2.414062 -3.597656 2.585938 -3.640625 2.734375 -3.640625 C 3.160156 -3.640625 3.460938 -3.515625 3.640625 -3.265625 C 3.828125 -3.023438 3.921875 -2.628906 3.921875 -2.078125 L 3.921875 -1.140625 C 3.921875 -0.910156 3.910156 -0.703125 3.890625 -0.515625 C 4.046875 -0.523438 4.195312 -0.53125 4.34375 -0.53125 L 4.34375 0 L 2.5 0 L 2.5 -0.453125 C 2.675781 -0.453125 2.789062 -0.5 2.84375 -0.59375 C 2.894531 -0.695312 2.921875 -0.859375 2.921875 -1.078125 L 2.921875 -2.078125 C 2.921875 -2.390625 2.875 -2.617188 2.78125 -2.765625 C 2.695312 -2.910156 2.550781 -2.984375 2.34375 -2.984375 C 2.226562 -2.984375 2.113281 -2.957031 2 -2.90625 C 1.882812 -2.863281 1.785156 -2.804688 1.703125 -2.734375 L 1.703125 -1.140625 C 1.703125 -0.910156 1.691406 -0.703125 1.671875 -0.515625 C 1.828125 -0.523438 1.984375 -0.53125 2.140625 -0.53125 L 2.140625 0 L 0.28125 0 Z M 0.28125 -0.453125 "/></g></g></g><g fill="#2c2d0c" fill-opacity="1"><g transform="translate(57.24656, 7.16537)"><g/></g></g><g fill="#2c2d0c" fill-opacity="1"><g transform="translate(59.135382, 7.16537)"><g><path d="M 0.359375 -0.46875 C 0.484375 -0.46875 0.578125 -0.476562 0.640625 -0.5 C 0.703125 -0.53125 0.753906 -0.585938 0.796875 -0.671875 C 0.835938 -0.753906 0.859375 -0.890625 0.859375 -1.078125 L 0.859375 -3.78125 C 0.859375 -4.039062 0.863281 -4.25 0.875 -4.40625 L 0.359375 -4.390625 L 0.359375 -4.9375 L 2.359375 -4.953125 C 2.992188 -4.953125 3.488281 -4.835938 3.84375 -4.609375 C 4.195312 -4.378906 4.375 -4.003906 4.375 -3.484375 C 4.375 -3.160156 4.265625 -2.875 4.046875 -2.625 C 3.835938 -2.375 3.53125 -2.191406 3.125 -2.078125 L 3.125 -2.0625 C 3.207031 -2.03125 3.296875 -1.972656 3.390625 -1.890625 C 3.484375 -1.804688 3.554688 -1.71875 3.609375 -1.625 L 3.953125 -1.125 C 4.109375 -0.875 4.238281 -0.703125 4.34375 -0.609375 C 4.445312 -0.515625 4.578125 -0.46875 4.734375 -0.46875 L 4.734375 0 L 3.578125 0 C 3.492188 -0.0507812 3.410156 -0.128906 3.328125 -0.234375 C 3.253906 -0.347656 3.164062 -0.488281 3.0625 -0.65625 L 2.53125 -1.515625 C 2.414062 -1.703125 2.316406 -1.835938 2.234375 -1.921875 L 1.875 -1.921875 L 1.875 -1.15625 C 1.875 -0.894531 1.863281 -0.679688 1.84375 -0.515625 C 2 -0.535156 2.195312 -0.546875 2.4375 -0.546875 L 2.4375 0 L 0.359375 0 Z M 2.21875 -2.421875 C 2.601562 -2.421875 2.878906 -2.503906 3.046875 -2.671875 C 3.222656 -2.847656 3.3125 -3.117188 3.3125 -3.484375 C 3.3125 -3.878906 3.207031 -4.140625 3 -4.265625 C 2.800781 -4.390625 2.582031 -4.453125 2.34375 -4.453125 C 2.175781 -4.453125 2.054688 -4.414062 1.984375 -4.34375 C 1.910156 -4.28125 1.875 -4.128906 1.875 -3.890625 L 1.875 -2.453125 C 2.007812 -2.429688 2.125 -2.421875 2.21875 -2.421875 Z M 2.21875 -2.421875 "/></g></g></g><g fill="#2c2d0c" fill-opacity="1"><g transform="translate(63.906776, 7.16537)"><g><path d="M 1.953125 0.109375 C 1.609375 0.109375 1.304688 0.0351562 1.046875 -0.109375 C 0.785156 -0.265625 0.582031 -0.484375 0.4375 -0.765625 C 0.289062 -1.046875 0.21875 -1.375 0.21875 -1.75 C 0.21875 -2.082031 0.289062 -2.390625 0.4375 -2.671875 C 0.582031 -2.960938 0.789062 -3.195312 1.0625 -3.375 C 1.332031 -3.550781 1.640625 -3.640625 1.984375 -3.640625 C 2.429688 -3.640625 2.804688 -3.503906 3.109375 -3.234375 C 3.421875 -2.960938 3.570312 -2.515625 3.5625 -1.890625 L 1.25 -1.859375 C 1.25 -1.441406 1.328125 -1.113281 1.484375 -0.875 C 1.640625 -0.632812 1.894531 -0.515625 2.25 -0.515625 C 2.414062 -0.515625 2.59375 -0.554688 2.78125 -0.640625 C 2.96875 -0.722656 3.132812 -0.859375 3.28125 -1.046875 L 3.59375 -0.75 C 3.195312 -0.175781 2.648438 0.109375 1.953125 0.109375 Z M 2.59375 -2.34375 C 2.582031 -2.875 2.390625 -3.140625 2.015625 -3.140625 C 1.816406 -3.140625 1.65625 -3.066406 1.53125 -2.921875 C 1.414062 -2.785156 1.335938 -2.59375 1.296875 -2.34375 Z M 2.59375 -2.34375 "/></g></g></g><g fill="#2c2d0c" fill-opacity="1"><g transform="translate(67.733754, 7.16537)"><g><path d="M 0.28125 -0.453125 C 0.46875 -0.453125 0.582031 -0.5 0.625 -0.59375 C 0.675781 -0.695312 0.703125 -0.859375 0.703125 -1.078125 L 0.703125 -2.265625 C 0.703125 -2.484375 0.710938 -2.6875 0.734375 -2.875 L 0.234375 -2.84375 L 0.234375 -3.375 C 0.535156 -3.375 0.773438 -3.394531 0.953125 -3.4375 C 1.140625 -3.488281 1.265625 -3.539062 1.328125 -3.59375 L 1.671875 -3.59375 C 1.671875 -3.582031 1.679688 -3.460938 1.703125 -3.234375 L 1.71875 -3.234375 C 1.851562 -3.347656 2.019531 -3.441406 2.21875 -3.515625 C 2.414062 -3.597656 2.585938 -3.640625 2.734375 -3.640625 C 3.160156 -3.640625 3.460938 -3.515625 3.640625 -3.265625 C 3.828125 -3.023438 3.921875 -2.628906 3.921875 -2.078125 L 3.921875 -1.140625 C 3.921875 -0.910156 3.910156 -0.703125 3.890625 -0.515625 C 4.046875 -0.523438 4.195312 -0.53125 4.34375 -0.53125 L 4.34375 0 L 2.5 0 L 2.5 -0.453125 C 2.675781 -0.453125 2.789062 -0.5 2.84375 -0.59375 C 2.894531 -0.695312 2.921875 -0.859375 2.921875 -1.078125 L 2.921875 -2.078125 C 2.921875 -2.390625 2.875 -2.617188 2.78125 -2.765625 C 2.695312 -2.910156 2.550781 -2.984375 2.34375 -2.984375 C 2.226562 -2.984375 2.113281 -2.957031 2 -2.90625 C 1.882812 -2.863281 1.785156 -2.804688 1.703125 -2.734375 L 1.703125 -1.140625 C 1.703125 -0.910156 1.691406 -0.703125 1.671875 -0.515625 C 1.828125 -0.523438 1.984375 -0.53125 2.140625 -0.53125 L 2.140625 0 L 0.28125 0 Z M 0.28125 -0.453125 "/></g></g></g><g fill="#2c2d0c" fill-opacity="1"><g transform="translate(72.209132, 7.16537)"><g><path d="M 1.6875 0.109375 C 0.945312 0.109375 0.578125 -0.335938 0.578125 -1.234375 L 0.59375 -2.9375 L 0.125 -2.9375 L 0.125 -3.53125 C 0.269531 -3.53125 0.410156 -3.578125 0.546875 -3.671875 C 0.679688 -3.765625 0.796875 -3.878906 0.890625 -4.015625 C 0.984375 -4.148438 1.046875 -4.28125 1.078125 -4.40625 L 1.609375 -4.40625 L 1.59375 -3.53125 L 2.5 -3.53125 L 2.5 -2.984375 L 1.59375 -2.953125 L 1.59375 -1.21875 C 1.59375 -0.769531 1.734375 -0.546875 2.015625 -0.546875 C 2.242188 -0.546875 2.457031 -0.6875 2.65625 -0.96875 L 3 -0.640625 C 2.769531 -0.316406 2.546875 -0.109375 2.328125 -0.015625 C 2.109375 0.0664062 1.894531 0.109375 1.6875 0.109375 Z M 1.6875 0.109375 "/></g></g></g><g fill="#2c2d0c" fill-opacity="1"><g transform="translate(75.155135, 7.16537)"><g><path d="M 1.171875 0.109375 C 0.867188 0.109375 0.632812 0.0195312 0.46875 -0.15625 C 0.300781 -0.332031 0.21875 -0.554688 0.21875 -0.828125 C 0.21875 -1.234375 0.40625 -1.539062 0.78125 -1.75 C 1.164062 -1.96875 1.628906 -2.09375 2.171875 -2.125 L 2.171875 -2.484375 C 2.171875 -2.910156 2.015625 -3.125 1.703125 -3.125 C 1.492188 -3.125 1.320312 -3.0625 1.1875 -2.9375 C 1.25 -2.863281 1.28125 -2.769531 1.28125 -2.65625 C 1.28125 -2.550781 1.238281 -2.453125 1.15625 -2.359375 C 1.082031 -2.273438 0.96875 -2.234375 0.8125 -2.234375 C 0.675781 -2.234375 0.566406 -2.273438 0.484375 -2.359375 C 0.398438 -2.453125 0.359375 -2.566406 0.359375 -2.703125 C 0.359375 -2.890625 0.425781 -3.050781 0.5625 -3.1875 C 0.695312 -3.332031 0.875 -3.441406 1.09375 -3.515625 C 1.320312 -3.597656 1.578125 -3.640625 1.859375 -3.640625 C 2.722656 -3.640625 3.15625 -3.191406 3.15625 -2.296875 L 3.15625 -1.140625 C 3.15625 -0.910156 3.144531 -0.703125 3.125 -0.515625 C 3.28125 -0.523438 3.429688 -0.53125 3.578125 -0.53125 L 3.578125 0 L 2.25 0 C 2.238281 -0.0625 2.226562 -0.171875 2.21875 -0.328125 C 1.925781 -0.0351562 1.578125 0.109375 1.171875 0.109375 Z M 1.609375 -0.578125 C 1.828125 -0.578125 2.015625 -0.660156 2.171875 -0.828125 L 2.171875 -1.625 C 1.890625 -1.59375 1.660156 -1.519531 1.484375 -1.40625 C 1.304688 -1.289062 1.21875 -1.140625 1.21875 -0.953125 C 1.21875 -0.828125 1.253906 -0.734375 1.328125 -0.671875 C 1.398438 -0.609375 1.492188 -0.578125 1.609375 -0.578125 Z M 1.609375 -0.578125 "/></g></g></g><g fill="#2c2d0c" fill-opacity="1"><g transform="translate(78.883444, 7.16537)"><g><path d="M 0.171875 -0.453125 C 0.296875 -0.453125 0.390625 -0.476562 0.453125 -0.53125 C 0.515625 -0.582031 0.550781 -0.648438 0.5625 -0.734375 C 0.582031 -0.816406 0.59375 -0.929688 0.59375 -1.078125 L 0.59375 -3.984375 C 0.59375 -4.203125 0.601562 -4.40625 0.625 -4.59375 L 0.125 -4.578125 L 0.125 -5.109375 C 0.425781 -5.109375 0.664062 -5.128906 0.84375 -5.171875 C 1.03125 -5.210938 1.15625 -5.265625 1.21875 -5.328125 L 1.59375 -5.328125 L 1.59375 -1.140625 C 1.59375 -0.910156 1.582031 -0.703125 1.5625 -0.515625 C 1.71875 -0.523438 1.867188 -0.53125 2.015625 -0.53125 L 2.015625 0 L 0.171875 0 Z M 0.171875 -0.453125 "/></g></g></g><g fill="#2c2d0c" fill-opacity="1"><g transform="translate(81.117616, 7.16537)"><g><path d="M 1.90625 0.109375 C 1.707031 0.109375 1.507812 0.0820312 1.3125 0.03125 C 1.125 -0.0195312 0.972656 -0.0820312 0.859375 -0.15625 L 0.875 0.046875 L 0.34375 0.046875 L 0.3125 -1.15625 L 0.78125 -1.15625 C 0.800781 -0.945312 0.910156 -0.765625 1.109375 -0.609375 C 1.316406 -0.460938 1.570312 -0.390625 1.875 -0.390625 C 2 -0.390625 2.109375 -0.421875 2.203125 -0.484375 C 2.304688 -0.546875 2.359375 -0.632812 2.359375 -0.75 C 2.359375 -0.832031 2.328125 -0.898438 2.265625 -0.953125 C 2.203125 -1.015625 2.128906 -1.0625 2.046875 -1.09375 C 1.960938 -1.132812 1.789062 -1.203125 1.53125 -1.296875 C 1.226562 -1.421875 1.003906 -1.519531 0.859375 -1.59375 C 0.710938 -1.664062 0.578125 -1.773438 0.453125 -1.921875 C 0.335938 -2.078125 0.28125 -2.269531 0.28125 -2.5 C 0.28125 -2.695312 0.328125 -2.878906 0.421875 -3.046875 C 0.515625 -3.222656 0.660156 -3.363281 0.859375 -3.46875 C 1.054688 -3.582031 1.300781 -3.640625 1.59375 -3.640625 C 1.726562 -3.640625 1.875 -3.617188 2.03125 -3.578125 C 2.195312 -3.535156 2.332031 -3.472656 2.4375 -3.390625 L 2.453125 -3.390625 L 2.4375 -3.59375 L 2.984375 -3.59375 L 2.984375 -2.359375 L 2.515625 -2.359375 C 2.472656 -2.597656 2.363281 -2.785156 2.1875 -2.921875 C 2.019531 -3.066406 1.8125 -3.140625 1.5625 -3.140625 C 1.425781 -3.140625 1.3125 -3.109375 1.21875 -3.046875 C 1.132812 -2.984375 1.09375 -2.890625 1.09375 -2.765625 C 1.09375 -2.640625 1.144531 -2.539062 1.25 -2.46875 C 1.351562 -2.40625 1.523438 -2.335938 1.765625 -2.265625 C 1.796875 -2.253906 1.859375 -2.234375 1.953125 -2.203125 C 2.347656 -2.066406 2.648438 -1.90625 2.859375 -1.71875 C 3.078125 -1.53125 3.1875 -1.28125 3.1875 -0.96875 C 3.1875 -0.738281 3.125 -0.539062 3 -0.375 C 2.882812 -0.21875 2.726562 -0.0976562 2.53125 -0.015625 C 2.34375 0.0664062 2.132812 0.109375 1.90625 0.109375 Z M 1.90625 0.109375 "/></g></g></g></g></g></svg>